  0
SECTION
  2
HEADER
  9
$ACADVER
  1
AC1015
  9
$ACADMAINTVER
 70
     6
  9
$DWGCODEPAGE
  3
ANSI_936
  9
$INSBASE
 10
0.0
 20
0.0
 30
0.0
  9
$EXTMIN
 10
0.0
 20
0.0
 30
0.0
  9
$EXTMAX
 10
500.0
 20
600.0
 30
0.0
  9
$LIMMIN
 10
0.0
 20
0.0
  9
$LIMMAX
 10
500.0
 20
600.0
  9
$ORTHOMODE
 70
     0
  9
$REGENMODE
 70
     1
  9
$FILLMODE
 70
     1
  9
$QTEXTMODE
 70
     0
  9
$MIRRTEXT
 70
     1
  9
$LTSCALE
 40
1.0
  9
$ATTMODE
 70
     1
  9
$TEXTSIZE
 40
3.5
  9
$TRACEWID
 40
1.0
  9
$TEXTSTYLE
  7
Standard
  9
$CLAYER
  8
0
  9
$CELTYPE
  6
ByLayer
  9
$CECOLOR
 62
   256
  9
$CELTSCALE
 40
1.0
  9
$DISPSILH
 70
     0
  9
$DIMSCALE
 40
1.0
  9
$DIMASZ
 40
3.556
  9
$DIMEXO
 40
1.0
  9
$DIMDLI
 40
3.75
  9
$DIMRND
 40
0.0
  9
$DIMDLE
 40
0.0
  9
$DIMEXE
 40
1.0
  9
$DIMTP
 40
0.0
  9
$DIMTM
 40
0.0
  9
$DIMTXT
 40
3.5
  9
$DIMCEN
 40
2.5
  9
$DIMTSZ
 40
0.0
  9
$DIMTOL
 70
     0
  9
$DIMLIM
 70
     0
  9
$DIMTIH
 70
     1
  9
$DIMTOH
 70
     1
  9
$DIMSE1
 70
     0
  9
$DIMSE2
 70
     0
  9
$DIMTAD
 70
     1
  9
$DIMZIN
 70
     1
  9
$DIMBLK
  1

  9
$DIMASO
 70
     1
  9
$DIMSHO
 70
     1
  9
$DIMPOST
  1

  9
$DIMAPOST
  1

  9
$DIMALT
 70
     0
  9
$DIMALTD
 70
     3
  9
$DIMALTF
 40
0.0393700787
  9
$DIMLFAC
 40
1.0
  9
$DIMTOFL
 70
     1
  9
$DIMTVP
 40
0.0
  9
$DIMTIX
 70
     0
  9
$DIMSOXD
 70
     0
  9
$DIMSAH
 70
     0
  9
$DIMBLK1
  1

  9
$DIMBLK2
  1

  9
$DIMSTYLE
  2
ISO-25
  9
$DIMCLRD
 70
     0
  9
$DIMCLRE
 70
     0
  9
$DIMCLRT
 70
     0
  9
$DIMTFAC
 40
1.0
  9
$DIMGAP
 40
1.524
  9
$DIMJUST
 70
     0
  9
$DIMSD1
 70
     0
  9
$DIMSD2
 70
     0
  9
$DIMTOLJ
 70
     0
  9
$DIMTZIN
 70
     1
  9
$DIMALTZ
 70
     0
  9
$DIMALTTZ
 70
     0
  9
$DIMUPT
 70
     0
  9
$DIMDEC
 70
     2
  9
$DIMTDEC
 70
     2
  9
$DIMALTU
 70
     2
  9
$DIMALTTD
 70
     3
  9
$DIMTXSTY
  7
Standard
  9
$DIMAUNIT
 70
     0
  9
$DIMADEC
 70
     2
  9
$DIMALTRND
 40
0.0
  9
$DIMAZIN
 70
     0
  9
$DIMDSEP
 70
    44
  9
$DIMATFIT
 70
     3
  9
$DIMFRAC
 70
     0
  9
$DIMLDRBLK
  1

  9
$DIMLUNIT
 70
     2
  9
$DIMLWD
 70
    -2
  9
$DIMLWE
 70
    -2
  9
$DIMTMOVE
 70
     0
  9
$LUNITS
 70
     2
  9
$LUPREC
 70
     2
  9
$SKETCHINC
 40
1.0
  9
$FILLETRAD
 40
0.0
  9
$AUNITS
 70
     0
  9
$AUPREC
 70
     2
  9
$MENU
  1
.
  9
$ELEVATION
 40
0.0
  9
$PELEVATION
 40
0.0
  9
$THICKNESS
 40
0.0
  9
$LIMCHECK
 70
     0
  9
$CHAMFERA
 40
0.0
  9
$CHAMFERB
 40
0.0
  9
$CHAMFERC
 40
0.0
  9
$CHAMFERD
 40
0.0
  9
$SKPOLY
 70
     0
  9
$TDCREATE
 40
2460848.83250294
  9
$TDUCREATE
 40
2460848.499169606
  9
$TDUPDATE
 40
2460848.832503171
  9
$TDUUPDATE
 40
2460848.499169838
  9
$TDINDWG
 40
0.0000000116
  9
$TDUSRTIMER
 40
0.0000000116
  9
$USRTIMER
 70
     1
  9
$ANGBASE
 50
0.0
  9
$ANGDIR
 70
     0
  9
$PDMODE
 70
     0
  9
$PDSIZE
 40
-1.0
  9
$PLINEWID
 40
0.0
  9
$SPLFRAME
 70
     0
  9
$SPLINETYPE
 70
     6
  9
$SPLINESEGS
 70
     8
  9
$HANDSEED
  5
16D
  9
$SURFTAB1
 70
     6
  9
$SURFTAB2
 70
     6
  9
$SURFTYPE
 70
     6
  9
$SURFU
 70
     6
  9
$SURFV
 70
     6
  9
$UCSBASE
  2

  9
$UCSNAME
  2

  9
$UCSORG
 10
0.0
 20
0.0
 30
0.0
  9
$UCSXDIR
 10
1.0
 20
0.0
 30
0.0
  9
$UCSYDIR
 10
0.0
 20
1.0
 30
0.0
  9
$UCSORTHOREF
  2

  9
$UCSORTHOVIEW
 70
     0
  9
$UCSORGTOP
 10
0.0
 20
0.0
 30
0.0
  9
$UCSORGBOTTOM
 10
0.0
 20
0.0
 30
0.0
  9
$UCSORGLEFT
 10
0.0
 20
0.0
 30
0.0
  9
$UCSORGRIGHT
 10
0.0
 20
0.0
 30
0.0
  9
$UCSORGFRONT
 10
0.0
 20
0.0
 30
0.0
  9
$UCSORGBACK
 10
0.0
 20
0.0
 30
0.0
  9
$PUCSBASE
  2

  9
$PUCSNAME
  2

  9
$PUCSORG
 10
0.0
 20
0.0
 30
0.0
  9
$PUCSXDIR
 10
1.0
 20
0.0
 30
0.0
  9
$PUCSYDIR
 10
0.0
 20
1.0
 30
0.0
  9
$PUCSORTHOREF
  2

  9
$PUCSORTHOVIEW
 70
     0
  9
$PUCSORGTOP
 10
0.0
 20
0.0
 30
0.0
  9
$PUCSORGBOTTOM
 10
0.0
 20
0.0
 30
0.0
  9
$PUCSORGLEFT
 10
0.0
 20
0.0
 30
0.0
  9
$PUCSORGRIGHT
 10
0.0
 20
0.0
 30
0.0
  9
$PUCSORGFRONT
 10
0.0
 20
0.0
 30
0.0
  9
$PUCSORGBACK
 10
0.0
 20
0.0
 30
0.0
  9
$USERI1
 70
     0
  9
$USERI2
 70
     0
  9
$USERI3
 70
     0
  9
$USERI4
 70
     0
  9
$USERI5
 70
     0
  9
$USERR1
 40
0.0
  9
$USERR2
 40
0.0
  9
$USERR3
 40
0.0
  9
$USERR4
 40
0.0
  9
$USERR5
 40
0.0
  9
$WORLDVIEW
 70
     1
  9
$SHADEDGE
 70
     3
  9
$SHADEDIF
 70
    70
  9
$TILEMODE
 70
     1
  9
$MAXACTVP
 70
    64
  9
$PINSBASE
 10
0.0
 20
0.0
 30
0.0
  9
$PLIMCHECK
 70
     0
  9
$PEXTMIN
 10
1.0000000000E+20
 20
1.0000000000E+20
 30
1.0000000000E+20
  9
$PEXTMAX
 10
-1.0000000000E+20
 20
-1.0000000000E+20
 30
-1.0000000000E+20
  9
$PLIMMIN
 10
0.0
 20
0.0
  9
$PLIMMAX
 10
420.0
 20
297.0
  9
$UNITMODE
 70
     0
  9
$VISRETAIN
 70
     1
  9
$PLINEGEN
 70
     0
  9
$PSLTSCALE
 70
     1
  9
$TREEDEPTH
 70
  3020
  9
$CMLSTYLE
  2
Standard
  9
$CMLJUST
 70
     0
  9
$CMLSCALE
 40
20.0
  9
$PROXYGRAPHICS
 70
     1
  9
$MEASUREMENT
 70
     1
  9
$CELWEIGHT
370
    -1
  9
$ENDCAPS
280
     0
  9
$JOINSTYLE
280
     0
  9
$LWDISPLAY
290
     1
  9
$INSUNITS
 70
     4
  9
$HYPERLINKBASE
  1

  9
$STYLESHEET
  1

  9
$XEDIT
290
     1
  9
$CEPSNTYPE
380
     0
  9
$PSTYLEMODE
290
     1
  9
$FINGERPRINTGUID
  2
{9b70795e-ea46-40ac-a87c-12b4acc9c516}
  9
$VERSIONGUID
  2
{FAEB1C32-E019-11D5-929B-00C0DF256EC4}
  9
$EXTNAMES
290
     1
  9
$PSVPSCALE
 40
0.0
  9
$OLESTARTUP
290
     0
  0
ENDSEC
  0
SECTION
  2
CLASSES
  0
CLASS
  1
ACDBDICTIONARYWDFLT
  2
AcDbDictionaryWithDefault
  3
ObjectDBX Classes
 90
        0
280
     0
281
     0
  0
CLASS
  1
VISUALSTYLE
  2
AcDbVisualStyle
  3
ObjectDBX Classes
 90
     4095
280
     0
281
     0
  0
CLASS
  1
MATERIAL
  2
AcDbMaterial
  3
ObjectDBX Classes
 90
     1153
280
     0
281
     0
  0
CLASS
  1
SCALE
  2
AcDbScale
  3
ObjectDBX Classes
 90
     1153
280
     0
281
     0
  0
CLASS
  1
TABLESTYLE
  2
AcDbTableStyle
  3
ObjectDBX Classes
 90
     4095
280
     0
281
     0
  0
CLASS
  1
MLEADERSTYLE
  2
AcDbMLeaderStyle
  3
ACDB_MLEADERSTYLE_CLASS
 90
     4095
280
     0
281
     0
  0
CLASS
  1
SUN
  2
AcDbSun
  3
SCENEOE
 90
     1153
280
     0
281
     0
  0
CLASS
  1
ACDBPLACEHOLDER
  2
AcDbPlaceHolder
  3
ObjectDBX Classes
 90
        0
280
     0
281
     0
  0
CLASS
  1
LAYOUT
  2
AcDbLayout
  3
ObjectDBX Classes
 90
        0
280
     0
281
     0
  0
ENDSEC
  0
SECTION
  2
TABLES
  0
TABLE
  2
VPORT
  5
8
330
0
100
AcDbSymbolTable
 70
     1
  0
VPORT
  5
29
330
8
100
AcDbSymbolTableRecord
100
AcDbViewportTableRecord
  2
*Active
 70
     0
 10
0.0
 20
0.0
 11
1.0
 21
1.0
 12
250.0
 22
300.0
 13
0.0
 23
0.0
 14
10.0
 24
10.0
 15
10.0
 25
10.0
 16
0.0
 26
0.0
 36
1.0
 17
0.0
 27
0.0
 37
0.0
 40
600.0
 41
0.8333333333
 42
50.0
 43
0.0
 44
0.0
 50
0.0
 51
0.0
 71
     0
 72
  2000
 73
     1
 74
     3
 75
     0
 76
     0
 77
     0
 78
     0
281
     0
 65
     1
110
0.0
120
0.0
130
0.0
111
1.0
121
0.0
131
0.0
112
0.0
122
1.0
132
0.0
 79
     0
146
0.0
  0
ENDTAB
  0
TABLE
  2
LTYPE
  5
5
330
0
100
AcDbSymbolTable
 70
     6
  0
LTYPE
  5
14
330
5
100
AcDbSymbolTableRecord
100
AcDbLinetypeTableRecord
  2
ByBlock
 70
     0
  3

 72
    65
 73
     0
 40
0.0
  0
LTYPE
  5
15
330
5
100
AcDbSymbolTableRecord
100
AcDbLinetypeTableRecord
  2
ByLayer
 70
     0
  3

 72
    65
 73
     0
 40
0.0
  0
LTYPE
  5
16
330
5
100
AcDbSymbolTableRecord
100
AcDbLinetypeTableRecord
  2
Continuous
 70
     0
  3
Solid line
 72
    65
 73
     0
 40
0.0
  0
LTYPE
  5
5E
330
5
100
AcDbSymbolTableRecord
100
AcDbLinetypeTableRecord
  2
HIDDEN
 70
     0
  3
Hidden __ __ __ __ __ __ __ __ __ __ __ __ __ __
 72
    65
 73
     2
 40
1.905
 49
1.27
 74
     0
 49
-0.635
 74
     0
  0
LTYPE
  5
5F
330
5
100
AcDbSymbolTableRecord
100
AcDbLinetypeTableRecord
  2
PHANTOM
 70
     0
  3
Phantom ______  __  __  ______  __  __  ______
 72
    65
 73
     6
 40
12.7
 49
6.35
 74
     0
 49
-1.27
 74
     0
 49
1.27
 74
     0
 49
-1.27
 74
     0
 49
1.27
 74
     0
 49
-1.27
 74
     0
  0
LTYPE
  5
60
330
5
100
AcDbSymbolTableRecord
100
AcDbLinetypeTableRecord
  2
CENTER
 70
     0
  3
Center ____ _ ____ _ ____ _ ____ _ ____ _ ____
 72
    65
 73
     4
 40
10.16
 49
6.35
 74
     0
 49
-1.27
 74
     0
 49
1.27
 74
     0
 49
-1.27
 74
     0
  0
LTYPE
  5
61
330
5
100
AcDbSymbolTableRecord
100
AcDbLinetypeTableRecord
  2
CENTERX2
 70
     0
  3
Center (2x) ________  __  ________  __  _____
 72
    65
 73
     4
 40
20.32
 49
12.7
 74
     0
 49
-2.54
 74
     0
 49
2.54
 74
     0
 49
-2.54
 74
     0
  0
LTYPE
  5
62
330
5
100
AcDbSymbolTableRecord
100
AcDbLinetypeTableRecord
  2
DOT2
 70
     0
  3
Dot (.5x) ........................................
 72
    65
 73
     2
 40
0.635
 49
0.0
 74
     0
 49
-0.635
 74
     0
  0
ENDTAB
  0
TABLE
  2
LAYER
  5
2
330
0
100
AcDbSymbolTable
 70
     1
  0
LAYER
  5
10
330
2
100
AcDbSymbolTableRecord
100
AcDbLayerTableRecord
  2
0
 70
     0
 62
     7
  6
Continuous
370
    -3
390
F
  0
ENDTAB
  0
TABLE
  2
STYLE
  5
3
330
0
100
AcDbSymbolTable
 70
     1
  0
STYLE
  5
11
330
3
100
AcDbSymbolTableRecord
100
AcDbTextStyleTableRecord
  2
Standard
 70
     0
 40
0.0
 41
1.0
 50
0.0
 71
     0
 42
3.5
  3
txt
  4

  0
ENDTAB
  0
TABLE
  2
VIEW
  5
6
330
0
100
AcDbSymbolTable
 70
     0
  0
ENDTAB
  0
TABLE
  2
UCS
  5
7
330
0
100
AcDbSymbolTable
 70
     0
  0
ENDTAB
  0
TABLE
  2
APPID
  5
9
330
0
100
AcDbSymbolTable
 70
     1
  0
APPID
  5
12
330
9
100
AcDbSymbolTableRecord
100
AcDbRegAppTableRecord
  2
ACAD
 70
     0
  0
ENDTAB
  0
TABLE
  2
DIMSTYLE
  5
A
330
0
100
AcDbSymbolTable
 70
     1
100
AcDbDimStyleTable
  0
DIMSTYLE
105
27
330
A
100
AcDbSymbolTableRecord
100
AcDbDimStyleTableRecord
  2
ISO-25
 70
     0
 41
2.5
 42
0.625
 43
3.75
 44
1.25
 73
     0
 74
     0
 77
     1
 78
     8
140
2.5
141
2.5
143
0.0393700787
147
0.625
171
     3
172
     1
178
     0
271
     2
272
     2
274
     3
278
    44
283
     0
284
     8
340
11
  0
ENDTAB
  0
TABLE
  2
BLOCK_RECORD
  5
1
330
0
100
AcDbSymbolTable
 70
     1
  0
BLOCK_RECORD
  5
1F
330
1
100
AcDbSymbolTableRecord
100
AcDbBlockTableRecord
  2
*Model_Space
340
22
  0
BLOCK_RECORD
  5
1B
330
1
100
AcDbSymbolTableRecord
100
AcDbBlockTableRecord
  2
*Paper_Space
340
1E
  0
BLOCK_RECORD
  5
23
330
1
100
AcDbSymbolTableRecord
100
AcDbBlockTableRecord
  2
*Paper_Space0
340
26
  0
ENDTAB
  0
ENDSEC
  0
SECTION
  2
BLOCKS
  0
BLOCK
  5
20
330
1F
100
AcDbEntity
  8
0
100
AcDbBlockBegin
  2
*Model_Space
 70
     0
 10
0.0
 20
0.0
 30
0.0
  3
*Model_Space
  1

  0
ENDBLK
  5
21
330
1F
100
AcDbEntity
  8
0
100
AcDbBlockEnd
  0
BLOCK
  5
1C
330
1B
100
AcDbEntity
 67
     1
  8
0
100
AcDbBlockBegin
  2
*Paper_Space
 70
     0
 10
0.0
 20
0.0
 30
0.0
  3
*Paper_Space
  1

  0
ENDBLK
  5
1D
330
1B
100
AcDbEntity
 67
     1
  8
0
100
AcDbBlockEnd
  0
BLOCK
  5
24
330
23
100
AcDbEntity
  8
0
100
AcDbBlockBegin
  2
*Paper_Space0
 70
     0
 10
0.0
 20
0.0
 30
0.0
  3
*Paper_Space0
  1

  0
ENDBLK
  5
25
330
23
100
AcDbEntity
  8
0
100
AcDbBlockEnd
  0
ENDSEC
  0
SECTION
  2
ENTITIES
  0
LINE
  5
63
330
1F
100
AcDbEntity
  8
0
  6
Continuous
 62
     7
370
    25
100
AcDbLine
 10
252.0301497793
 20
318.8279955793
 30
0.0
 11
255.0301497793
 21
318.8279955793
 31
0.0
  0
LINE
  5
64
330
1F
100
AcDbEntity
  8
0
  6
Continuous
 62
     7
370
    25
100
AcDbLine
 10
255.0301497793
 20
318.8279955793
 30
0.0
 11
255.0301497793
 21
356.3279955793
 31
0.0
  0
LINE
  5
65
330
1F
100
AcDbEntity
  8
0
  6
Continuous
 62
     7
370
    25
100
AcDbLine
 10
252.0301497793
 20
356.3279955793
 30
0.0
 11
255.0301497793
 21
356.3279955793
 31
0.0
  0
LINE
  5
66
330
1F
100
AcDbEntity
  8
0
  6
Continuous
 62
     7
370
    25
100
AcDbLine
 10
252.0301497793
 20
318.8279955793
 30
0.0
 11
252.0301497793
 21
356.3279955793
 31
0.0
  0
LINE
  5
67
330
1F
100
AcDbEntity
  8
0
  6
Continuous
 62
     7
370
    25
100
AcDbLine
 10
405.0301497793
 20
380.2029955793
 30
0.0
 11
405.0301497793
 21
398.9529955793
 31
0.0
  0
LINE
  5
68
330
1F
100
AcDbEntity
  8
0
  6
Continuous
 62
     7
370
    25
100
AcDbLine
 10
402.0301497793
 20
398.9529955793
 30
0.0
 11
405.0301497793
 21
398.9529955793
 31
0.0
  0
LINE
  5
69
330
1F
100
AcDbEntity
  8
0
  6
Continuous
 62
     7
370
    25
100
AcDbLine
 10
402.0301497793
 20
380.2029955793
 30
0.0
 11
402.0301497793
 21
398.9529955793
 31
0.0
  0
LINE
  5
6A
330
1F
100
AcDbEntity
  8
0
  6
Continuous
 62
     7
370
    25
100
AcDbLine
 10
402.0301497793
 20
380.2029955793
 30
0.0
 11
405.0301497793
 21
380.2029955793
 31
0.0
  0
LINE
  5
6B
330
1F
100
AcDbEntity
  8
0
  6
Continuous
 62
     7
370
    25
100
AcDbLine
 10
327.0301497793
 20
350.8279955793
 30
0.0
 11
327.0301497793
 21
313.3279955793
 31
0.0
  0
LINE
  5
6C
330
1F
100
AcDbEntity
  8
0
  6
Continuous
 62
     7
370
    25
100
AcDbLine
 10
327.0301497793
 20
313.3279955793
 30
0.0
 11
330.0301497793
 21
313.3279955793
 31
0.0
  0
LINE
  5
6D
330
1F
100
AcDbEntity
  8
0
  6
Continuous
 62
     7
370
    25
100
AcDbLine
 10
330.0301497793
 20
350.8279955793
 30
0.0
 11
330.0301497793
 21
313.3279955793
 31
0.0
  0
LINE
  5
6E
330
1F
100
AcDbEntity
  8
0
  6
Continuous
 62
     7
370
    25
100
AcDbLine
 10
327.0301497793
 20
350.8279955793
 30
0.0
 11
330.0301497793
 21
350.8279955793
 31
0.0
  0
SPLINE
  5
6F
330
1F
100
AcDbEntity
  8
0
  6
Continuous
 62
     7
370
    25
100
AcDbSpline
210
0.0
220
0.0
230
1.0
 70
     8
 71
     3
 72
    28
 73
    24
 74
     0
 42
0.00000001
 43
0.00000001
 40
0.0
 40
0.0
 40
0.0
 40
0.0
 40
0.0591682428606223
 40
0.1145327676548381
 40
0.1673162157575792
 40
0.2181444446071149
 40
0.2672902908223455
 40
0.3148296593872238
 40
0.3607483221835238
 40
0.421189916901327
 40
0.4785836098006501
 40
0.533220081725484
 40
0.5855340120253886
 40
0.6426254293232702
 40
0.6973483161254556
 40
0.7494069934545364
 40
0.7984902144777003
 40
0.8297773115520379
 40
0.8605146015071203
 40
0.8916654369668895
 40
0.9244785288652283
 40
0.9602360315270371
 40
0.9999999999999999
 40
0.9999999999999999
 40
0.9999999999999999
 40
0.9999999999999999
 10
61.03014977930379
 20
389.5779955792738
 30
0.0
 10
64.110362050068
 20
390.4866351388806
 30
0.0
 10
70.07277058679018
 20
392.2455010191398
 30
0.0
 10
78.5044552390069
 20
395.6328601357013
 30
0.0
 10
86.3606179918723
 20
399.1916027277971
 30
0.0
 10
93.77454105901326
 20
402.8977537118611
 30
0.0
 10
100.819574397385
 20
406.6949763956051
 30
0.0
 10
107.5090269896272
 20
410.5833296923805
 30
0.0
 10
114.5670460406242
 20
415.0460067007178
 30
0.0
 10
121.8181708048086
 20
420.1902970621157
 30
0.0
 10
129.0092602896843
 20
426.1935780078863
 30
0.0
 10
135.3115472240469
 20
432.5181769539076
 30
0.0
 10
140.9786894024174
 20
439.3949796478839
 30
0.0
 10
146.0147267607348
 20
446.7489709178728
 30
0.0
 10
150.5896405604067
 20
454.3727303388624
 30
0.0
 10
154.8956572179189
 20
461.6475293342006
 30
0.0
 10
158.9604655501427
 20
467.5904742544305
 30
0.0
 10
162.9854045155882
 20
472.0973385434671
 30
0.0
 10
166.8702566455831
 20
475.3636157243529
 30
0.0
 10
171.3342083800069
 20
477.9632119516997
 30
0.0
 10
176.4474722553199
 20
479.8043405262879
 30
0.0
 10
182.2487570842762
 20
480.9055662111291
 30
0.0
 10
186.3490750403057
 20
481.0185216684135
 30
0.0
 10
188.5079963574199
 20
481.0779955792738
 30
0.0
  0
LINE
  5
70
330
1F
100
AcDbEntity
  8
0
  6
Continuous
 62
     7
370
    25
100
AcDbLine
 10
188.5079963574
 20
481.0779955793
 30
0.0
 11
318.5523032012
 21
481.0779955793
 31
0.0
  0
LINE
  5
71
330
1F
100
AcDbEntity
  8
0
  6
Continuous
 62
     7
370
    25
100
AcDbLine
 10
318.5523032012
 20
298.0779955793
 30
0.0
 11
188.5079963574
 21
298.0779955793
 31
0.0
  0
SPLINE
  5
72
330
1F
100
AcDbEntity
  8
0
  6
Continuous
 62
     7
370
    25
100
AcDbSpline
210
0.0
220
0.0
230
1.0
 70
     8
 71
     3
 72
    28
 73
    24
 74
     0
 42
0.00000001
 43
0.00000001
 40
0.0
 40
0.0
 40
0.0
 40
0.0
 40
0.0397640206210982
 40
0.0755215701767945
 40
0.1083347051075976
 40
0.1394855814198782
 40
0.1702229116851312
 40
0.2015100497906793
 40
0.2505933351836368
 40
0.3026520807846494
 40
0.3573750393527224
 40
0.4144665315226818
 40
0.4677511773464518
 40
0.5234520378256965
 40
0.5820254695699404
 40
0.6437676799089638
 40
0.7087335616864826
 40
0.7529851290297828
 40
0.7985980538333973
 40
0.8456747510111777
 40
0.8944874817138291
 40
0.9455919867605822
 40
1.0
 40
1.0
 40
1.0
 40
1.0
 10
188.5079963574199
 20
298.0779955792738
 30
0.0
 10
186.3490750402341
 20
298.1374694901392
 30
0.0
 10
182.2487570840685
 20
298.2504249474333
 30
0.0
 10
176.4474722560291
 20
299.351650632209
 30
0.0
 10
171.334208377634
 20
301.1927792070176
 30
0.0
 10
166.8702566539219
 20
303.792375433598
 30
0.0
 10
162.9854044846347
 20
307.0586526172954
 30
0.0
 10
158.9604656964234
 20
311.56551689365
 30
0.0
 10
154.8956562935965
 20
317.508461890486
 30
0.0
 10
150.5896442669589
 20
324.783260554466
 30
0.0
 10
146.0147119147174
 20
332.4070213029688
 30
0.0
 10
140.9489628745335
 20
339.8044985931177
 30
0.0
 10
135.2055721544397
 20
346.7623758040408
 30
0.0
 10
128.7625880999756
 20
353.1939436649879
 30
0.0
 10
121.3990103173339
 20
359.2914135340715
 30
0.0
 10
113.1681758537008
 20
365.074086659733
 30
0.0
 10
105.2614074637772
 20
369.9295030988441
 30
0.0
 10
97.93669282000455
 20
374.041624444589
 30
0.0
 10
91.35655172993532
 20
377.4912316771515
 30
0.0
 10
84.45533766321195
 20
380.8559635837491
 30
0.0
 10
77.16151461817486
 20
384.0802337600505
 30
0.0
 10
69.35999697429476
 20
387.1400963853014
 30
0.0
 10
63.86412257906826
 20
388.7485758021091
 30
0.0
 10
61.03014977930379
 20
389.5779955792738
 30
0.0
  0
LINE
  5
73
330
1F
100
AcDbEntity
  8
0
  6
Continuous
 62
     7
370
    25
100
AcDbLine
 10
327.0301497793
 20
465.8279955793
 30
0.0
 11
330.0301497793
 21
465.8279955793
 31
0.0
  0
LINE
  5
74
330
1F
100
AcDbEntity
  8
0
  6
Continuous
 62
     7
370
    25
100
AcDbLine
 10
327.0301497793
 20
428.3279955793
 30
0.0
 11
327.0301497793
 21
465.8279955793
 31
0.0
  0
LINE
  5
75
330
1F
100
AcDbEntity
  8
0
  6
Continuous
 62
     7
370
    25
100
AcDbLine
 10
327.0301497793
 20
428.3279955793
 30
0.0
 11
330.0301497793
 21
428.3279955793
 31
0.0
  0
LINE
  5
76
330
1F
100
AcDbEntity
  8
0
  6
Continuous
 62
     7
370
    25
100
AcDbLine
 10
330.0301497793
 20
428.3279955793
 30
0.0
 11
330.0301497793
 21
465.8279955793
 31
0.0
  0
CIRCLE
  5
77
330
1F
100
AcDbEntity
  8
0
  6
Continuous
 62
     7
370
    25
100
AcDbCircle
 10
253.5301497793
 20
389.5779955793
 30
0.0
 40
5.0
  0
LINE
  5
78
330
1F
100
AcDbEntity
  8
0
  6
Continuous
 62
     7
370
    25
100
AcDbLine
 10
102.0301497793
 20
380.2029955793
 30
0.0
 11
102.0301497793
 21
398.9529955793
 31
0.0
  0
LINE
  5
79
330
1F
100
AcDbEntity
  8
0
  6
Continuous
 62
     7
370
    25
100
AcDbLine
 10
105.0301497793
 20
380.2029955793
 30
0.0
 11
102.0301497793
 21
380.2029955793
 31
0.0
  0
LINE
  5
7A
330
1F
100
AcDbEntity
  8
0
  6
Continuous
 62
     7
370
    25
100
AcDbLine
 10
105.0301497793
 20
380.2029955793
 30
0.0
 11
105.0301497793
 21
398.9529955793
 31
0.0
  0
LINE
  5
7B
330
1F
100
AcDbEntity
  8
0
  6
Continuous
 62
     7
370
    25
100
AcDbLine
 10
105.0301497793
 20
398.9529955793
 30
0.0
 11
102.0301497793
 21
398.9529955793
 31
0.0
  0
LINE
  5
7C
330
1F
100
AcDbEntity
  8
0
  6
Continuous
 62
     7
370
    25
100
AcDbLine
 10
180.0301497793
 20
313.3279955793
 30
0.0
 11
177.0301497793
 21
313.3279955793
 31
0.0
  0
LINE
  5
7D
330
1F
100
AcDbEntity
  8
0
  6
Continuous
 62
     7
370
    25
100
AcDbLine
 10
180.0301497793
 20
350.8279955793
 30
0.0
 11
180.0301497793
 21
313.3279955793
 31
0.0
  0
LINE
  5
7E
330
1F
100
AcDbEntity
  8
0
  6
Continuous
 62
     7
370
    25
100
AcDbLine
 10
180.0301497793
 20
350.8279955793
 30
0.0
 11
177.0301497793
 21
350.8279955793
 31
0.0
  0
LINE
  5
7F
330
1F
100
AcDbEntity
  8
0
  6
Continuous
 62
     7
370
    25
100
AcDbLine
 10
177.0301497793
 20
350.8279955793
 30
0.0
 11
177.0301497793
 21
313.3279955793
 31
0.0
  0
LINE
  5
80
330
1F
100
AcDbEntity
  8
0
  6
Continuous
 62
     7
370
    25
100
AcDbLine
 10
177.0301497793
 20
428.3279955793
 30
0.0
 11
177.0301497793
 21
465.8279955793
 31
0.0
  0
LINE
  5
81
330
1F
100
AcDbEntity
  8
0
  6
Continuous
 62
     7
370
    25
100
AcDbLine
 10
180.0301497793
 20
428.3279955793
 30
0.0
 11
177.0301497793
 21
428.3279955793
 31
0.0
  0
LINE
  5
82
330
1F
100
AcDbEntity
  8
0
  6
Continuous
 62
     7
370
    25
100
AcDbLine
 10
180.0301497793
 20
428.3279955793
 30
0.0
 11
180.0301497793
 21
465.8279955793
 31
0.0
  0
LINE
  5
83
330
1F
100
AcDbEntity
  8
0
  6
Continuous
 62
     7
370
    25
100
AcDbLine
 10
180.0301497793
 20
465.8279955793
 30
0.0
 11
177.0301497793
 21
465.8279955793
 31
0.0
  0
LINE
  5
84
330
1F
100
AcDbEntity
  8
0
  6
Continuous
 62
     7
370
    25
100
AcDbLine
 10
252.0301497793
 20
460.3279955793
 30
0.0
 11
255.0301497793
 21
460.3279955793
 31
0.0
  0
LINE
  5
85
330
1F
100
AcDbEntity
  8
0
  6
Continuous
 62
     7
370
    25
100
AcDbLine
 10
252.0301497793
 20
422.8279955793
 30
0.0
 11
252.0301497793
 21
460.3279955793
 31
0.0
  0
LINE
  5
86
330
1F
100
AcDbEntity
  8
0
  6
Continuous
 62
     7
370
    25
100
AcDbLine
 10
252.0301497793
 20
422.8279955793
 30
0.0
 11
255.0301497793
 21
422.8279955793
 31
0.0
  0
LINE
  5
87
330
1F
100
AcDbEntity
  8
0
  6
Continuous
 62
     7
370
    25
100
AcDbLine
 10
255.0301497793
 20
422.8279955793
 30
0.0
 11
255.0301497793
 21
460.3279955793
 31
0.0
  0
SPLINE
  5
88
330
1F
100
AcDbEntity
  8
0
  6
Continuous
 62
     7
370
    25
100
AcDbSpline
210
0.0
220
0.0
230
1.0
 70
     8
 71
     3
 72
    28
 73
    24
 74
     0
 42
0.00000001
 43
0.00000001
 40
0.0
 40
0.0
 40
0.0
 40
0.0
 40
0.0397640206210981
 40
0.0755215701767945
 40
0.1083347051075976
 40
0.1394855814198782
 40
0.1702229116851312
 40
0.2015100497906794
 40
0.2505933351836367
 40
0.3026520807846493
 40
0.3573750393527224
 40
0.4144665315226818
 40
0.4677511773464516
 40
0.5234520378256965
 40
0.5820254695699404
 40
0.6437676799089637
 40
0.7087335616864826
 40
0.7529851290297827
 40
0.7985980538333974
 40
0.8456747510111777
 40
0.8944874817138291
 40
0.9455919867605822
 40
1.0
 40
1.0
 40
1.0
 40
1.0
 10
318.5523032011877
 20
481.0779955792738
 30
0.0
 10
320.7112245183735
 20
481.0185216684084
 30
0.0
 10
324.8115424745391
 20
480.9055662111144
 30
0.0
 10
330.6128273025785
 20
479.8043405263386
 30
0.0
 10
335.7260911809735
 20
477.96321195153
 30
0.0
 10
340.1900429046856
 20
475.3636157249497
 30
0.0
 10
344.0748950739729
 20
472.0973385412523
 30
0.0
 10
348.0998338621841
 20
467.5904742648975
 30
0.0
 10
352.1646432650111
 20
461.6475292680615
 30
0.0
 10
356.4706552916486
 20
454.3727306040815
 30
0.0
 10
361.0455876438901
 20
446.7489698555789
 30
0.0
 10
366.111336684074
 20
439.3514925654299
 30
0.0
 10
371.8547274041679
 20
432.3936153545067
 30
0.0
 10
378.297711458632
 20
425.9620474935597
 30
0.0
 10
385.6612892412737
 20
419.8645776244761
 30
0.0
 10
393.8921237049068
 20
414.0819044988147
 30
0.0
 10
401.7988920948303
 20
409.2264880597035
 30
0.0
 10
409.1236067386031
 20
405.1143667139585
 30
0.0
 10
415.7037478286722
 20
401.6647594813961
 30
0.0
 10
422.6049618953957
 20
398.3000275747985
 30
0.0
 10
429.8987849404328
 20
395.0757573984972
 30
0.0
 10
437.7003025843129
 20
392.0158947732461
 30
0.0
 10
443.1961769795394
 20
390.4074153564385
 30
0.0
 10
446.0301497793038
 20
389.5779955792738
 30
0.0
  0
SPLINE
  5
89
330
1F
100
AcDbEntity
  8
0
  6
Continuous
 62
     7
370
    25
100
AcDbSpline
210
0.0
220
0.0
230
1.0
 70
     8
 71
     3
 72
    28
 73
    24
 74
     0
 42
0.00000001
 43
0.00000001
 40
0.0
 40
0.0
 40
0.0
 40
0.0
 40
0.0591682428606223
 40
0.1145327676548382
 40
0.1673162157575793
 40
0.218144444607115
 40
0.2672902908223456
 40
0.314829659387224
 40
0.3607483221835239
 40
0.4211899169013272
 40
0.4785836098006503
 40
0.5332200817254843
 40
0.585534012025389
 40
0.6426254293232705
 40
0.6973483161254559
 40
0.7494069934545368
 40
0.7984902144777006
 40
0.8297773115520382
 40
0.8605146015071204
 40
0.8916654369668895
 40
0.9244785288652284
 40
0.9602360315270372
 40
1.0
 40
1.0
 40
1.0
 40
1.0
 10
446.0301497793038
 20
389.5779955792738
 30
0.0
 10
442.9499375085396
 20
388.669356019667
 30
0.0
 10
436.9875289718174
 20
386.9104901394078
 30
0.0
 10
428.5558443196007
 20
383.5231310228463
 30
0.0
 10
420.6996815667353
 20
379.9643884307504
 30
0.0
 10
413.2857584995944
 20
376.2582374466865
 30
0.0
 10
406.2407251612227
 20
372.4610147629425
 30
0.0
 10
399.5512725689804
 20
368.5726614661672
 30
0.0
 10
392.4932535179835
 20
364.1099844578297
 30
0.0
 10
385.242128753799
 20
358.9656940964319
 30
0.0
 10
378.0510392689233
 20
352.9624131506613
 30
0.0
 10
371.7487523345607
 20
346.6378142046399
 30
0.0
 10
366.0816101561902
 20
339.7610115106637
 30
0.0
 10
361.0455727978728
 20
332.4070202406747
 30
0.0
 10
356.4706589982009
 20
324.7832608196852
 30
0.0
 10
352.1646423406887
 20
317.508461824347
 30
0.0
 10
348.099834008465
 20
311.565516904117
 30
0.0
 10
344.0748950430192
 20
307.0586526150806
 30
0.0
 10
340.1900429130245
 20
303.7923754341946
 30
0.0
 10
335.7260911786007
 20
301.1927792068478
 30
0.0
 10
330.6128273032876
 20
299.3516506322597
 30
0.0
 10
324.8115424743314
 20
298.2504249474184
 30
0.0
 10
320.7112245183019
 20
298.137469490134
 30
0.0
 10
318.5523032011877
 20
298.0779955792738
 30
0.0
  0
LINE
  5
8A
330
1F
100
AcDbEntity
  8
0
  6
Continuous
 62
     7
370
    25
100
AcDbLine
 10
404.3165259717
 20
310.8837132727
 30
0.0
 11
404.3165259717
 21
290.8837132257
 31
0.0
  0
LINE
  5
8B
330
1F
100
AcDbEntity
  8
0
  6
Continuous
 62
     7
370
    25
100
AcDbLine
 10
407.3165259717
 20
290.8837132257
 30
0.0
 11
404.3165259717
 21
290.8837132257
 31
0.0
  0
LINE
  5
8C
330
1F
100
AcDbEntity
  8
0
  6
Continuous
 62
     7
370
    25
100
AcDbLine
 10
407.316525728
 20
313.5719944649
 30
0.0
 11
407.3165259717
 21
290.8837132257
 31
0.0
  0
SPLINE
  5
8D
330
1F
100
AcDbEntity
  8
0
  6
Continuous
 62
     7
370
    25
100
AcDbSpline
210
0.0
220
0.0
230
1.0
 70
     8
 71
     3
 72
    12
 73
     8
 74
     0
 42
0.00000001
 43
0.00000001
 40
0.0
 40
0.0
 40
0.0
 40
0.0
 40
0.165764903340065
 40
0.3457210286910627
 40
0.5426709248210196
 40
0.7596668449083491
 40
1.0
 40
1.0
 40
1.0
 40
1.0
 10
407.316525728042
 20
313.5719944649017
 30
0.0
 10
408.9083158640806
 20
315.1426265941273
 30
0.0
 10
412.2281701408488
 20
318.4183535089927
 30
0.0
 10
416.9246650796097
 20
324.0437944546432
 30
0.0
 10
421.642419723261
 20
330.519110577787
 30
0.0
 10
426.3743869140147
 20
337.9756130254793
 30
0.0
 10
429.2862821584532
 20
343.4133090164769
 30
0.0
 10
430.8165259355812
 20
346.2708982336818
 30
0.0
  0
LINE
  5
8E
330
1F
100
AcDbEntity
  8
0
  6
Continuous
 62
     7
370
    25
100
AcDbLine
 10
430.8165259356
 20
346.2708982337
 30
0.0
 11
448.3028161776
 21
346.2708982337
 31
0.0
  0
SPLINE
  5
8F
330
1F
100
AcDbEntity
  8
0
  6
Continuous
 62
     7
370
    25
100
AcDbSpline
210
0.0
220
0.0
230
1.0
 70
     8
 71
     3
 72
    53
 73
    49
 74
     0
 42
0.00000001
 43
0.00000001
 40
0.0
 40
0.0
 40
0.0
 40
0.0
 40
0.0226823303474489
 40
0.0434304896885464
 40
0.0624267095072654
 40
0.0798442273221792
 40
0.0958475525826369
 40
0.110592608208522
 40
0.124226725857455
 40
0.1414104762651911
 40
0.1570865807218583
 40
0.1715525449667102
 40
0.1850690197831827
 40
0.2031201376440407
 40
0.220198221135966
 40
0.2366689029618477
 40
0.2527782554605098
 40
0.2686825829350251
 40
0.2844760277175207
 40
0.309189855133324
 40
0.3338575112606239
 40
0.3585128501403595
 40
0.4245459918338225
 40
0.4905788178768825
 40
0.5325997071469296
 40
0.5746206024466018
 40
0.6166420350296875
 40
0.6586754611818879
 40
0.6771952134201252
 40
0.6957645637827162
 40
0.7144465716492354
 40
0.7333662638326439
 40
0.7485462244556143
 40
0.764194105909423
 40
0.7805742892168107
 40
0.7980531221303979
 40
0.8100908628434603
 40
0.8229319456772604
 40
0.8367488567472959
 40
0.851732615050674
 40
0.8680917400083703
 40
0.8860513706534909
 40
0.9014425882954689
 40
0.9180942827717178
 40
0.9361364236598012
 40
0.955705215459284
 40
0.9769432979797269
 40
1.0
 40
1.0
 40
1.0
 40
1.0
 10
67.56674571779817
 20
333.7708982336823
 30
0.0
 10
68.81045919146428
 20
330.3958738798688
 30
0.0
 10
71.1918320207175
 20
323.9336207448693
 30
0.0
 10
75.01646384862967
 20
314.8005118205309
 30
0.0
 10
78.82288672700174
 20
306.5725298266954
 30
0.0
 10
82.63502287092267
 20
299.1838287539321
 30
0.0
 10
86.44741985239612
 20
292.5628749996351
 30
0.0
 10
90.2616115197227
 20
286.6449312715704
 30
0.0
 10
94.49736280716425
 20
280.7883321021779
 30
0.0
 10
99.21200149808514
 20
275.1099376935796
 30
0.0
 10
104.4771360377753
 20
269.7504310753204
 30
0.0
 10
109.7452508974737
 20
265.2456140878325
 30
0.0
 10
115.6927420005806
 20
260.9995259372068
 30
0.0
 10
122.4138228483918
 20
257.1767169890513
 30
0.0
 10
129.9487243646847
 20
253.9503948310098
 30
0.0
 10
137.4639043443515
 20
251.5665091566298
 30
0.0
 10
144.9612742396151
 20
249.8369274146832
 30
0.0
 10
152.4452386846017
 20
248.6073268463971
 30
0.0
 10
161.3348120018959
 20
247.5925212184138
 30
0.0
 10
171.6499618290941
 20
246.9034577937533
 30
0.0
 10
183.3839422052999
 20
246.5179729081179
 30
0.0
 10
201.6737000127786
 20
246.261932211017
 30
0.0
 10
226.52414492744
 20
246.2764107727366
 30
0.0
 10
254.1274133381188
 20
246.2699766440872
 30
0.0
 10
277.9233931252082
 20
246.2711580155614
 30
0.0
 10
297.9122973126942
 20
246.2719688541368
 30
0.0
 10
317.9023266468494
 20
246.3320028875135
 30
0.0
 10
334.1675173809181
 20
246.6322463418965
 30
0.0
 10
346.6957308011054
 20
247.3267897314733
 30
0.0
 10
355.505274926502
 20
248.1258982750892
 30
0.0
 10
364.3287345505128
 20
249.3752615598065
 30
0.0
 10
372.5229231987756
 20
251.1238440247335
 30
0.0
 10
380.0842990474787
 20
253.3985466368875
 30
0.0
 10
387.0484297001825
 20
256.1728868535932
 30
0.0
 10
394.025882684147
 20
259.8009372052896
 30
0.0
 10
400.0856639520674
 20
263.8607900465416
 30
0.0
 10
405.2965723115125
 20
268.1068200302054
 30
0.0
 10
409.7579193921724
 20
272.3272517805062
 30
0.0
 10
414.2171698080095
 20
277.2041783723322
 30
0.0
 10
418.6740360058379
 20
282.8156533752503
 30
0.0
 10
423.1280967119814
 20
289.2464189946054
 30
0.0
 10
427.2167719874158
 20
295.990423126266
 30
0.0
 10
430.9898667616068
 20
302.9659995969996
 30
0.0
 10
434.4823394981141
 20
310.1006380673429
 30
0.0
 10
437.9749247550592
 20
317.9659208293148
 30
0.0
 10
441.4629309889319
 20
326.6222171080439
 30
0.0
 10
444.9668376155174
 20
336.1252446572083
 30
0.0
 10
447.1607973806891
 20
342.7976963303825
 30
0.0
 10
448.3028161775869
 20
346.2708982336818
 30
0.0
  0
LINE
  5
90
330
1F
100
AcDbEntity
  8
0
  6
Continuous
 62
     7
370
    25
100
AcDbLine
 10
67.5667457178
 20
333.7708982337
 30
0.0
 11
44.5802357658
 21
333.7708982337
 31
0.0
  0
ARC
  5
91
330
1F
100
AcDbEntity
  8
0
  6
Continuous
 62
     7
370
    25
100
AcDbCircle
 10
44.5802357658
 20
340.0208982337
 30
0.0
 40
6.25
100
AcDbArc
 50
90.0
 51
270.0
  0
LINE
  5
92
330
1F
100
AcDbEntity
  8
0
  6
Continuous
 62
     7
370
    25
100
AcDbLine
 10
44.5802357658
 20
346.2708982337
 30
0.0
 11
80.8165260072
 21
346.2708982337
 31
0.0
  0
SPLINE
  5
93
330
1F
100
AcDbEntity
  8
0
  6
Continuous
 62
     7
370
    25
100
AcDbSpline
210
0.0
220
0.0
230
1.0
 70
     8
 71
     3
 72
    12
 73
     8
 74
     0
 42
0.00000001
 43
0.00000001
 40
0.0
 40
0.0
 40
0.0
 40
0.0
 40
0.240333154319806
 40
0.4573290741713287
 40
0.6542789704336411
 40
0.8342350961572572
 40
1.0
 40
1.0
 40
1.0
 40
1.0
 10
80.81652600720291
 20
346.2708982336817
 30
0.0
 10
82.34676975357583
 20
343.4133090722631
 30
0.0
 10
85.2586649424267
 20
337.9756131819382
 30
0.0
 10
89.99063203406368
 20
330.5191108576487
 30
0.0
 10
94.70838657917288
 20
324.0437948212622
 30
0.0
 10
99.40488141969911
 20
318.4183539333834
 30
0.0
 10
102.7247356253196
 20
315.1426270388248
 30
0.0
 10
104.3165257280417
 20
313.5719949185494
 30
0.0
  0
LINE
  5
94
330
1F
100
AcDbEntity
  8
0
  6
Continuous
 62
     7
370
    25
100
AcDbLine
 10
104.316525728
 20
313.5719949185
 30
0.0
 11
104.3165259717
 21
290.8837132257
 31
0.0
  0
LINE
  5
95
330
1F
100
AcDbEntity
  8
0
  6
Continuous
 62
     7
370
    25
100
AcDbLine
 10
104.3165259717
 20
290.8837132257
 30
0.0
 11
107.3165259717
 21
290.8837132257
 31
0.0
  0
LINE
  5
96
330
1F
100
AcDbEntity
  8
0
  6
Continuous
 62
     7
370
    25
100
AcDbLine
 10
107.3165259717
 20
310.8837132666
 30
0.0
 11
107.3165259717
 21
290.8837132257
 31
0.0
  0
SPLINE
  5
97
330
1F
100
AcDbEntity
  8
0
  6
Continuous
 62
     7
370
    25
100
AcDbSpline
210
0.0
220
0.0
230
1.0
 70
     8
 71
     3
 72
    16
 73
    12
 74
     0
 42
0.00000001
 43
0.00000001
 40
0.0
 40
0.0
 40
0.0
 40
0.0
 40
0.0950319540298964
 40
0.1839726659327325
 40
0.2684472358524937
 40
0.3911962672494445
 40
0.5097530221490226
 40
0.6260916012868606
 40
0.7413306176767291
 40
0.8560607820753434
 40
1.0
 40
1.0
 40
1.0
 40
1.0
 10
107.3165259717309
 20
310.8837132666382
 30
0.0
 10
109.2036457331141
 20
309.3606104598643
 30
0.0
 10
112.856926958151
 20
306.4120308298624
 30
0.0
 10
118.6724192228455
 20
302.7729849995851
 30
0.0
 10
125.3958144729976
 20
299.3190026764589
 30
0.0
 10
133.166192914028
 20
296.3211297973875
 30
0.0
 10
141.9849164170958
 20
293.9501678119952
 30
0.0
 10
150.7759442907663
 20
292.3483290674832
 30
0.0
 10
159.5477727433959
 20
291.3021032233327
 30
0.0
 10
169.0566843007621
 20
290.5738115926627
 30
0.0
 10
175.6484632794215
 20
290.3294323653406
 30
0.0
 10
179.3165259716447
 20
290.19344505002
 30
0.0
  0
LINE
  5
98
330
1F
100
AcDbEntity
  8
0
  6
Continuous
 62
     7
370
    25
100
AcDbLine
 10
179.3165259716
 20
290.19344505
 30
0.0
 11
179.3165259717
 21
270.1093522237
 31
0.0
  0
LINE
  5
99
330
1F
100
AcDbEntity
  8
0
  6
Continuous
 62
     7
370
    25
100
AcDbLine
 10
179.3165259717
 20
270.1093522237
 30
0.0
 11
182.3165259717
 21
270.1093522237
 31
0.0
  0
LINE
  5
9A
330
1F
100
AcDbEntity
  8
0
  6
Continuous
 62
     7
370
    25
100
AcDbLine
 10
182.3165259717
 20
290.1093522623
 30
0.0
 11
182.3165259717
 21
270.1093522237
 31
0.0
  0
SPLINE
  5
9B
330
1F
100
AcDbEntity
  8
0
  6
Continuous
 62
     7
370
    25
100
AcDbSpline
210
0.0
220
0.0
230
1.0
 70
     8
 71
     3
 72
     9
 73
     5
 74
     0
 42
0.00000001
 43
0.00000001
 40
0.0
 40
0.0
 40
0.0
 40
0.0
 40
0.5000276136860751
 40
1.0
 40
1.0
 40
1.0
 40
1.0
 10
182.3165259716901
 20
290.1093522623381
 30
0.0
 10
187.2330568560698
 20
290.0194294912876
 30
0.0
 10
197.0655756006575
 20
289.8395938810348
 30
0.0
 10
206.8997235527168
 20
289.8222941697667
 30
0.0
 10
211.816525971672
 20
289.8136447918415
 30
0.0
  0
LINE
  5
9C
330
1F
100
AcDbEntity
  8
0
  6
Continuous
 62
     7
370
    25
100
AcDbLine
 10
211.8165259717
 20
289.8136447918
 30
0.0
 11
211.8165259717
 21
264.2636447511
 31
0.0
  0
LINE
  5
9D
330
1F
100
AcDbEntity
  8
0
  6
Continuous
 62
     7
370
    25
100
AcDbLine
 10
211.8165259717
 20
264.2636447511
 30
0.0
 11
299.8165259717
 21
264.2636447511
 31
0.0
  0
LINE
  5
9E
330
1F
100
AcDbEntity
  8
0
  6
Continuous
 62
     7
370
    25
100
AcDbLine
 10
299.8165259717
 20
289.8136447981
 30
0.0
 11
299.8165259717
 21
264.2636447511
 31
0.0
  0
SPLINE
  5
9F
330
1F
100
AcDbEntity
  8
0
  6
Continuous
 62
     7
370
    25
100
AcDbSpline
210
0.0
220
0.0
230
1.0
 70
     8
 71
     3
 72
     9
 73
     5
 74
     0
 42
0.00000001
 43
0.00000001
 40
0.0
 40
0.0
 40
0.0
 40
0.0
 40
0.499972386314009
 40
1.0
 40
1.0
 40
1.0
 40
1.0
 10
299.8165259716745
 20
289.813644798108
 30
0.0
 10
304.7333283906384
 20
289.8222941767127
 30
0.0
 10
314.5674763427132
 20
289.8395938893396
 30
0.0
 10
324.3999950872981
 20
290.019429500726
 30
0.0
 10
329.3165259716757
 20
290.1093522723433
 30
0.0
  0
LINE
  5
A0
330
1F
100
AcDbEntity
  8
0
  6
Continuous
 62
     7
370
    25
100
AcDbLine
 10
332.3165259717
 20
270.1093522237
 30
0.0
 11
329.3165259717
 21
270.1093522237
 31
0.0
  0
LINE
  5
A1
330
1F
100
AcDbEntity
  8
0
  6
Continuous
 62
     7
370
    25
100
AcDbLine
 10
332.3165259723
 20
290.1934450604
 30
0.0
 11
332.3165259717
 21
270.1093522237
 31
0.0
  0
SPLINE
  5
A2
330
1F
100
AcDbEntity
  8
0
  6
Continuous
 62
     7
370
    25
100
AcDbSpline
210
0.0
220
0.0
230
1.0
 70
     8
 71
     3
 72
    16
 73
    12
 74
     0
 42
0.00000001
 43
0.00000001
 40
0.0
 40
0.0
 40
0.0
 40
0.0
 40
0.1439392180206982
 40
0.2586693824234064
 40
0.3739083988167543
 40
0.4902469779568654
 40
0.6088037328565135
 40
0.7315527642497908
 40
0.816027334142059
 40
0.9049680460115098
 40
1.0
 40
1.0
 40
1.0
 40
1.0
 10
332.316525972258
 20
290.1934450603546
 30
0.0
 10
335.9845886667683
 20
290.3294323761228
 30
0.0
 10
342.5763676476911
 20
290.573811604181
 30
0.0
 10
352.0852792072452
 20
291.3021032358465
 30
0.0
 10
360.8571076597021
 20
292.3483290805427
 30
0.0
 10
369.6481355331063
 20
293.9501678253075
 30
0.0
 10
378.4668590357822
 20
296.3211298105767
 30
0.0
 10
386.2372374758642
 20
299.3190026889387
 30
0.0
 10
392.9606327245306
 20
302.7729850106721
 30
0.0
 10
398.7761249871753
 20
306.4120308387594
 30
0.0
 10
402.4294062110192
 20
309.3606104668975
 30
0.0
 10
404.316525971731
 20
310.8837132726642
 30
0.0
  0
CIRCLE
  5
A3
330
1F
100
AcDbEntity
  8
0
  6
Continuous
 62
     7
370
    25
100
AcDbCircle
 10
44.5802357658
 20
340.0208982337
 30
0.0
 40
3.124999999999993
  0
LINE
  5
A4
330
1F
100
AcDbEntity
  8
0
  6
Continuous
 62
     7
370
    25
100
AcDbLine
 10
329.3165259717
 20
290.1093522723
 30
0.0
 11
329.3165259717
 21
270.1093522237
 31
0.0
  0
SPLINE
  5
A5
330
1F
100
AcDbEntity
  8
0
  6
Continuous
 62
     7
370
    25
100
AcDbSpline
210
0.0
220
0.0
230
1.0
 70
     8
 71
     3
 72
    12
 73
     8
 74
     0
 42
0.00000001
 43
0.00000001
 40
0.0
 40
0.0
 40
0.0
 40
0.0
 40
0.1657649033400646
 40
0.3457210286910625
 40
0.5426709248210196
 40
0.7596668449083492
 40
1.0
 40
1.0
 40
1.0
 40
1.0
 10
400.299537855666
 20
72.10961823266443
 30
0.0
 10
401.8913279917046
 20
73.68025036188999
 30
0.0
 10
405.2111822684727
 20
76.95597727675535
 30
0.0
 10
409.9076772072336
 20
82.58141822240597
 30
0.0
 10
414.625431850885
 20
89.05673434554967
 30
0.0
 10
419.3573990416385
 20
96.513236793242
 30
0.0
 10
422.2692942860772
 20
101.9509327842397
 30
0.0
 10
423.7995380632051
 20
104.8085220014445
 30
0.0
  0
SPLINE
  5
A6
330
1F
100
AcDbEntity
  8
0
  6
Continuous
 62
     7
370
    25
100
AcDbSpline
210
0.0
220
0.0
230
1.0
 70
     8
 71
     3
 72
    12
 73
     8
 74
     0
 42
0.00000001
 43
0.00000001
 40
0.0
 40
0.0
 40
0.0
 40
0.0
 40
0.2403331543198057
 40
0.4573290741713288
 40
0.6542789704336414
 40
0.8342350961572581
 40
1.0
 40
1.0
 40
1.0
 40
1.0
 10
73.79953813482685
 20
104.8085220014444
 30
0.0
 10
75.32978188119974
 20
101.9509328400258
 30
0.0
 10
78.24167707005064
 20
96.51323694970098
 30
0.0
 10
82.97364416168764
 20
89.05673462541134
 30
0.0
 10
87.69139870679687
 20
82.58141858902496
 30
0.0
 10
92.38789354732307
 20
76.95597770114607
 30
0.0
 10
95.7077477529436
 20
73.6802508065875
 30
0.0
 10
97.29953785566566
 20
72.10961868631216
 30
0.0
  0
SPLINE
  5
A7
330
1F
100
AcDbEntity
  8
0
  6
Continuous
 62
     7
370
    25
100
AcDbSpline
210
0.0
220
0.0
230
1.0
 70
     8
 71
     3
 72
    16
 73
    12
 74
     0
 42
0.00000001
 43
0.00000001
 40
0.0
 40
0.0
 40
0.0
 40
0.0
 40
0.095031954029896
 40
0.1839726659327325
 40
0.2684472358524935
 40
0.3911962672494445
 40
0.5097530221490226
 40
0.6260916012868605
 40
0.741330617676729
 40
0.8560607820753434
 40
1.0
 40
1.0
 40
1.0
 40
1.0
 10
100.2995380993549
 20
69.42133703440089
 30
0.0
 10
102.186657860738
 20
67.89823422762694
 30
0.0
 10
105.839939085775
 20
64.94965459762508
 30
0.0
 10
111.6554313504695
 20
61.31060876734789
 30
0.0
 10
118.3788266006216
 20
57.85662644422152
 30
0.0
 10
126.149205041652
 20
54.85875356515027
 30
0.0
 10
134.9679285447197
 20
52.48779157975791
 30
0.0
 10
143.7589564183903
 20
50.88595283524602
 30
0.0
 10
152.5307848710198
 20
49.83972699109532
 30
0.0
 10
162.039696428386
 20
49.11143536042537
 30
0.0
 10
168.6314754070454
 20
48.86705613310327
 30
0.0
 10
172.2995380992686
 20
48.73106881778272
 30
0.0
  0
LINE
  5
A8
330
1F
100
AcDbEntity
  8
0
  6
Continuous
 62
     7
370
    25
100
AcDbLine
 10
172.2995380993
 20
48.7310688178
 30
0.0
 11
172.2995380993
 21
28.6469759915
 31
0.0
  0
LINE
  5
A9
330
1F
100
AcDbEntity
  8
0
  6
Continuous
 62
     7
370
    25
100
AcDbLine
 10
172.2995380993
 20
28.6469759915
 30
0.0
 11
175.2995380993
 21
28.6469759915
 31
0.0
  0
LINE
  5
AA
330
1F
100
AcDbEntity
  8
0
  6
Continuous
 62
     7
370
    25
100
AcDbLine
 10
175.2995380993
 20
48.6469760301
 30
0.0
 11
175.2995380993
 21
28.6469759915
 31
0.0
  0
SPLINE
  5
AB
330
1F
100
AcDbEntity
  8
0
  6
Continuous
 62
     7
370
    25
100
AcDbSpline
210
0.0
220
0.0
230
1.0
 70
     8
 71
     3
 72
     9
 73
     5
 74
     0
 42
0.00000001
 43
0.00000001
 40
0.0
 40
0.0
 40
0.0
 40
0.0
 40
0.5000276136860751
 40
1.0
 40
1.0
 40
1.0
 40
1.0
 10
175.2995380993141
 20
48.64697603010079
 30
0.0
 10
180.2160689836938
 20
48.55705325905027
 30
0.0
 10
190.0485877282814
 20
48.37721764879752
 30
0.0
 10
199.8827356803407
 20
48.35991793752942
 30
0.0
 10
204.799538099296
 20
48.35126855960414
 30
0.0
  0
LINE
  5
AC
330
1F
100
AcDbEntity
  8
0
  6
Continuous
 62
     7
370
    25
100
AcDbLine
 10
292.7995380993
 20
48.3512685659
 30
0.0
 11
292.7995380993
 21
22.8012685188
 31
0.0
  0
SPLINE
  5
AD
330
1F
100
AcDbEntity
  8
0
  6
Continuous
 62
     7
370
    25
100
AcDbSpline
210
0.0
220
0.0
230
1.0
 70
     8
 71
     3
 72
    16
 73
    12
 74
     0
 42
0.00000001
 43
0.00000001
 40
0.0
 40
0.0
 40
0.0
 40
0.0
 40
0.1439392180206982
 40
0.2586693824234064
 40
0.3739083988167543
 40
0.4902469779568653
 40
0.6088037328565133
 40
0.7315527642497905
 40
0.8160273341420586
 40
0.9049680460115099
 40
1.0
 40
1.0
 40
1.0
 40
1.0
 10
325.299538099882
 20
48.73106882811732
 30
0.0
 10
328.9676007943922
 20
48.86705614388559
 30
0.0
 10
335.5593797753151
 20
49.11143537194373
 30
0.0
 10
345.0682913348692
 20
49.83972700360906
 30
0.0
 10
353.840119787326
 20
50.88595284830549
 30
0.0
 10
362.6311476607302
 20
52.48779159307026
 30
0.0
 10
371.4498711634062
 20
54.85875357833936
 30
0.0
 10
379.220249603488
 20
57.85662645670151
 30
0.0
 10
385.9436448521545
 20
61.3106087784348
 30
0.0
 10
391.7591371147993
 20
64.94965460652219
 30
0.0
 10
395.4124183386432
 20
67.89823423466015
 30
0.0
 10
397.299538099355
 20
69.42133704042688
 30
0.0
  0
SPLINE
  5
AE
330
1F
100
AcDbEntity
  8
0
  6
Continuous
 62
     7
370
    25
100
AcDbSpline
210
0.0
220
0.0
230
1.0
 70
     8
 71
     3
 72
     9
 73
     5
 74
     0
 42
0.00000001
 43
0.00000001
 40
0.0
 40
0.0
 40
0.0
 40
0.0
 40
0.499972386314009
 40
1.0
 40
1.0
 40
1.0
 40
1.0
 10
292.7995380992984
 20
48.35126856587077
 30
0.0
 10
297.7163405182623
 20
48.35991794447542
 30
0.0
 10
307.5504884703372
 20
48.37721765710231
 30
0.0
 10
317.3830072149221
 20
48.55705326848867
 30
0.0
 10
322.2995380992996
 20
48.64697604010601
 30
0.0
  0
LINE
  5
AF
330
1F
100
AcDbEntity
  8
0
  6
Continuous
 62
     7
370
    25
100
AcDbLine
 10
97.2995380993
 20
49.4213369935
 30
0.0
 11
100.2995380993
 21
49.4213369935
 31
0.0
  0
LINE
  5
B0
330
1F
100
AcDbEntity
  8
0
  6
Continuous
 62
     7
370
    25
100
AcDbLine
 10
100.2995380994
 20
69.4213370344
 30
0.0
 11
100.2995380993
 21
49.4213369935
 31
0.0
  0
LINE
  5
B1
330
1F
100
AcDbEntity
  8
0
  6
Continuous
 62
     7
370
    25
100
AcDbLine
 10
97.2995378557
 20
72.1096186863
 30
0.0
 11
97.2995380993
 21
49.4213369935
 31
0.0
  0
LINE
  5
B2
330
1F
100
AcDbEntity
  8
0
  6
Continuous
 62
     7
370
    25
100
AcDbLine
 10
322.2995380993
 20
48.6469760401
 30
0.0
 11
322.2995380993
 21
28.6469759915
 31
0.0
  0
LINE
  5
B3
330
1F
100
AcDbEntity
  8
0
  6
Continuous
 62
     7
370
    25
100
AcDbLine
 10
325.2995380993
 20
28.6469759915
 30
0.0
 11
322.2995380993
 21
28.6469759915
 31
0.0
  0
LINE
  5
B4
330
1F
100
AcDbEntity
  8
0
  6
Continuous
 62
     7
370
    25
100
AcDbLine
 10
325.2995380999
 20
48.7310688281
 30
0.0
 11
325.2995380993
 21
28.6469759915
 31
0.0
  0
LINE
  5
B5
330
1F
100
AcDbEntity
  8
0
  6
Continuous
 62
     7
370
    25
100
AcDbLine
 10
397.2995380994
 20
69.4213370404
 30
0.0
 11
397.2995380993
 21
49.4213369935
 31
0.0
  0
LINE
  5
B6
330
1F
100
AcDbEntity
  8
0
  6
Continuous
 62
     7
370
    25
100
AcDbLine
 10
400.2995380993
 20
49.4213369935
 30
0.0
 11
397.2995380993
 21
49.4213369935
 31
0.0
  0
LINE
  5
B7
330
1F
100
AcDbEntity
  8
0
  6
Continuous
 62
     7
370
    25
100
AcDbLine
 10
400.2995378557
 20
72.1096182327
 30
0.0
 11
400.2995380993
 21
49.4213369935
 31
0.0
  0
CIRCLE
  5
B8
330
1F
100
AcDbEntity
  8
0
  6
Continuous
 62
     7
370
    25
100
AcDbCircle
 10
37.5632478934
 20
98.5585220014
 30
0.0
 40
3.124999999999993
  0
LINE
  5
B9
330
1F
100
AcDbEntity
  8
0
  6
Continuous
 62
     7
370
    25
100
AcDbLine
 10
423.7995380632
 20
104.8085220014
 30
0.0
 11
441.2858283052
 21
104.8085220014
 31
0.0
  0
SPLINE
  5
BA
330
1F
100
AcDbEntity
  8
0
  6
Continuous
 62
     7
370
    25
100
AcDbSpline
210
0.0
220
0.0
230
1.0
 70
     8
 71
     3
 72
    53
 73
    49
 74
     0
 42
0.00000001
 43
0.00000001
 40
0.0
 40
0.0
 40
0.0
 40
0.0
 40
0.0226823303474489
 40
0.0434304896885464
 40
0.0624267095072654
 40
0.0798442273221793
 40
0.0958475525826369
 40
0.110592608208522
 40
0.1242267258574551
 40
0.1414104762651912
 40
0.1570865807218584
 40
0.1715525449667102
 40
0.1850690197831827
 40
0.2031201376440407
 40
0.220198221135966
 40
0.2366689029618477
 40
0.2527782554605099
 40
0.2686825829350251
 40
0.2844760277175207
 40
0.309189855133324
 40
0.3338575112606239
 40
0.3585128501403595
 40
0.4245459918338225
 40
0.4905788178768825
 40
0.5325997071469296
 40
0.5746206024466018
 40
0.6166420350296875
 40
0.6586754611818879
 40
0.6771952134201252
 40
0.6957645637827162
 40
0.7144465716492354
 40
0.7333662638326439
 40
0.7485462244556143
 40
0.764194105909423
 40
0.7805742892168107
 40
0.7980531221303978
 40
0.8100908628434602
 40
0.8229319456772602
 40
0.8367488567472959
 40
0.851732615050674
 40
0.8680917400083703
 40
0.8860513706534909
 40
0.9014425882954689
 40
0.9180942827717178
 40
0.9361364236598012
 40
0.955705215459284
 40
0.9769432979797269
 40
1.0
 40
1.0
 40
1.0
 40
1.0
 10
60.5497578454221
 20
92.30852200144504
 30
0.0
 10
61.79347131908822
 20
88.93349764763146
 30
0.0
 10
64.17484414834144
 20
82.47124451263204
 30
0.0
 10
67.9994759762536
 20
73.3381355882935
 30
0.0
 10
71.80589885462571
 20
65.11015359445818
 30
0.0
 10
75.6180349985466
 20
57.72145252169478
 30
0.0
 10
79.43043198002009
 20
51.10049876739778
 30
0.0
 10
83.24462364734659
 20
45.1825550393331
 30
0.0
 10
87.48037493478822
 20
39.3259558699407
 30
0.0
 10
92.19501362570914
 20
33.64756146134224
 30
0.0
 10
97.46014816539916
 20
28.28805484308311
 30
0.0
 10
102.7282630250977
 20
23.78323785559516
 30
0.0
 10
108.6757541282045
 20
19.53714970496956
 30
0.0
 10
115.3968349760158
 20
15.71434075681405
 30
0.0
 10
122.9317364923087
 20
12.48801859877252
 30
0.0
 10
130.4469164719754
 20
10.10413292439244
 30
0.0
 10
137.944286367239
 20
8.374551182445899
 30
0.0
 10
145.4282508122257
 20
7.144950614159818
 30
0.0
 10
154.3178241295199
 20
6.130144986176478
 30
0.0
 10
164.632973956718
 20
5.441081561516015
 30
0.0
 10
176.3669543329238
 20
5.055596675880569
 30
0.0
 10
194.6567121404025
 20
4.799555978779734
 30
0.0
 10
219.5071570550639
 20
4.814034540499224
 30
0.0
 10
247.1104254657428
 20
4.807600411849966
 30
0.0
 10
270.9064052528322
 20
4.808781783324223
 30
0.0
 10
290.8953094403182
 20
4.809592621899561
 30
0.0
 10
310.8853387744733
 20
4.869626655276182
 30
0.0
 10
327.150529508542
 20
5.169870109659247
 30
0.0
 10
339.6787429287293
 20
5.864413499235999
 30
0.0
 10
348.4882870541259
 20
6.663522042851977
 30
0.0
 10
357.3117466781368
 20
7.912885327569175
 30
0.0
 10
365.5059353263995
 20
9.661467792496104
 30
0.0
 10
373.0673111751026
 20
11.93617040465028
 30
0.0
 10
380.0314418278065
 20
14.71051062135587
 30
0.0
 10
387.0088948117709
 20
18.33856097305236
 30
0.0
 10
393.0686760796914
 20
22.39841381430424
 30
0.0
 10
398.2795844391364
 20
26.64444379796815
 30
0.0
 10
402.7409315197964
 20
30.86487554826883
 30
0.0
 10
407.2001819356334
 20
35.74180214009487
 30
0.0
 10
411.6570481334618
 20
41.35327714301312
 30
0.0
 10
416.1111088396052
 20
47.78404276236811
 30
0.0
 10
420.1997841150398
 20
54.52804689402873
 30
0.0
 10
423.9728788892307
 20
61.5036233647622
 30
0.0
 10
427.465351625738
 20
68.63826183510568
 30
0.0
 10
430.9579368826831
 20
76.50354459707748
 30
0.0
 10
434.4459431165559
 20
85.15984087580655
 30
0.0
 10
437.9498497431413
 20
94.66286842497101
 30
0.0
 10
440.1438095083132
 20
101.3353200981451
 30
0.0
 10
441.2858283052109
 20
104.8085220014445
 30
0.0
  0
LINE
  5
BB
330
1F
100
AcDbEntity
  8
0
  6
Continuous
 62
     7
370
    25
100
AcDbLine
 10
60.5497578454
 20
92.3085220014
 30
0.0
 11
37.5632478934
 21
92.3085220014
 31
0.0
  0
ARC
  5
BC
330
1F
100
AcDbEntity
  8
0
  6
Continuous
 62
     7
370
    25
100
AcDbCircle
 10
37.5632478934
 20
98.5585220014
 30
0.0
 40
6.250000000000014
100
AcDbArc
 50
90.0
 51
270.0
  0
LINE
  5
BD
330
1F
100
AcDbEntity
  8
0
  6
Continuous
 62
     7
370
    25
100
AcDbLine
 10
37.5632478934
 20
104.8085220014
 30
0.0
 11
73.7995381348
 21
104.8085220014
 31
0.0
  0
LINE
  5
BE
330
1F
100
AcDbEntity
  8
0
  6
Continuous
 62
     7
370
    25
100
AcDbLine
 10
204.7995380993
 20
22.8012685188
 30
0.0
 11
292.7995380993
 21
22.8012685188
 31
0.0
  0
LINE
  5
BF
330
1F
100
AcDbEntity
  8
0
  6
Continuous
 62
     7
370
    25
100
AcDbLine
 10
204.7995380993
 20
48.3512685596
 30
0.0
 11
204.7995380993
 21
22.8012685188
 31
0.0
  0
LINE
  5
C0
330
1F
100
AcDbEntity
  8
0
  6
Continuous
 62
     7
370
    25
100
AcDbLine
 10
325.8452675352
 20
577.7727203017
 30
0.0
 11
325.8452675352
 21
585.2727203017
 31
0.0
  0
LINE
  5
C1
330
1F
100
AcDbEntity
  8
0
  6
Continuous
 62
     7
370
    25
100
AcDbLine
 10
325.8452675352
 20
585.2727203017
 30
0.0
 11
363.3452675352
 21
585.2727203017
 31
0.0
  0
LINE
  5
C2
330
1F
100
AcDbEntity
  8
0
  6
Continuous
 62
     7
370
    25
100
AcDbLine
 10
363.3452675352
 20
577.7727203017
 30
0.0
 11
363.3452675352
 21
585.2727203017
 31
0.0
  0
LINE
  5
C3
330
1F
100
AcDbEntity
  8
0
  6
Continuous
 62
     7
370
    25
100
AcDbLine
 10
363.3452675352
 20
577.7727203017
 30
0.0
 11
392.1951610072
 21
577.7727203017
 31
0.0
  0
LINE
  5
C4
330
1F
100
AcDbEntity
  8
0
  6
Continuous
 62
     7
370
    25
100
AcDbLine
 10
392.1951610072
 20
577.7727203017
 30
0.0
 11
392.1951610072
 21
538.2369481923
 31
0.0
  0
ARC
  5
C5
330
1F
100
AcDbEntity
  8
0
  6
Continuous
 62
     7
370
    25
100
AcDbCircle
 10
396.6396054516
 20
518.7370273315
 30
0.0
 40
20.0
100
AcDbArc
 50
102.8395884069
 51
265.6987776953
  0
LINE
  5
C6
330
1F
100
AcDbEntity
  8
0
  6
Continuous
 62
     7
370
    25
100
AcDbLine
 10
395.1396054516
 20
498.7933566563
 30
0.0
 11
398.1396054516
 21
498.7933566563
 31
0.0
  0
ARC
  5
C7
330
1F
100
AcDbEntity
  8
0
  6
Continuous
 62
     7
370
    25
100
AcDbCircle
 10
396.6396054516
 20
518.7370273315
 30
0.0
 40
19.99999999999993
100
AcDbArc
 50
274.3012223047
 51
77.1604115931
  0
LINE
  5
C8
330
1F
100
AcDbEntity
  8
0
  6
Continuous
 62
     7
370
    25
100
AcDbLine
 10
401.0840498961
 20
538.2369481923
 30
0.0
 11
401.0840498961
 21
577.7727203017
 31
0.0
  0
LINE
  5
C9
330
1F
100
AcDbEntity
  8
0
  6
Continuous
 62
     7
370
    25
100
AcDbLine
 10
401.0840498961
 20
577.7727203017
 30
0.0
 11
429.9339433681
 21
577.7727203017
 31
0.0
  0
LINE
  5
CA
330
1F
100
AcDbEntity
  8
0
  6
Continuous
 62
     7
370
    25
100
AcDbLine
 10
429.9339433681
 20
577.7727203017
 30
0.0
 11
429.9339433681
 21
585.2727203017
 31
0.0
  0
LINE
  5
CB
330
1F
100
AcDbEntity
  8
0
  6
Continuous
 62
     7
370
    25
100
AcDbLine
 10
467.4339433681
 20
585.2727203017
 30
0.0
 11
429.9339433681
 21
585.2727203017
 31
0.0
  0
LINE
  5
CC
330
1F
100
AcDbEntity
  8
0
  6
Continuous
 62
     7
370
    25
100
AcDbLine
 10
467.4339433681
 20
577.7727203017
 30
0.0
 11
467.4339433681
 21
585.2727203017
 31
0.0
  0
LINE
  5
CD
330
1F
100
AcDbEntity
  8
0
  6
Continuous
 62
     7
370
    25
100
AcDbLine
 10
467.4339433681
 20
577.7727203017
 30
0.0
 11
488.0792249455
 21
577.7727203017
 31
0.0
  0
SPLINE
  5
CE
330
1F
100
AcDbEntity
  8
0
  6
Continuous
 62
     7
370
    25
100
AcDbSpline
210
0.0
220
0.0
230
1.0
 70
     8
 71
     3
 72
    19
 73
    15
 74
     0
 42
0.00000001
 43
0.00000001
 40
0.0
 40
0.0
 40
0.0
 40
0.0
 40
0.0529432962025237
 40
0.1078021925672368
 40
0.16600518304875
 40
0.2287527836777663
 40
0.2970061232405786
 40
0.3715135660320548
 40
0.4557341733524676
 40
0.5477431307061101
 40
0.6479142970167283
 40
0.7565372857327202
 40
0.8738391253858113
 40
1.0
 40
1.0
 40
1.0
 40
1.0
 10
398.1396054516264
 20
477.7996303017379
 30
0.0
 10
400.6117550097048
 20
478.0171142328498
 30
0.0
 10
405.6455017128857
 20
478.459951122573
 30
0.0
 10
413.1002413798165
 20
480.8121107760819
 30
0.0
 10
420.529436425291
 20
484.3749601508068
 30
0.0
 10
427.9309536470479
 20
489.2677664247174
 30
0.0
 10
435.3132232990664
 20
495.4435664647062
 30
0.0
 10
442.777404210516
 20
503.007501225222
 30
0.0
 10
450.3160636892367
 20
512.0004201152522
 30
0.0
 10
457.9223308131938
 20
522.4591495958169
 30
0.0
 10
465.5284444629203
 20
534.2978344474072
 30
0.0
 10
473.1267053868629
 20
547.5222923816834
 30
0.0
 10
480.7561939046201
 20
562.1164704737766
 30
0.0
 10
485.5797091441923
 20
572.4288888177668
 30
0.0
 10
488.0792249454958
 20
577.7727203016996
 30
0.0
  0
LINE
  5
CF
330
1F
100
AcDbEntity
  8
0
  6
Continuous
 62
     7
370
    25
100
AcDbLine
 10
398.1396054516
 20
495.7933566563
 30
0.0
 11
398.1396054516
 21
477.7996303017
 31
0.0
  0
LINE
  5
D0
330
1F
100
AcDbEntity
  8
0
  6
Continuous
 62
     7
370
    25
100
AcDbLine
 10
395.1396054516
 20
495.7933566563
 30
0.0
 11
398.1396054516
 21
495.7933566563
 31
0.0
  0
LINE
  5
D1
330
1F
100
AcDbEntity
  8
0
  6
Continuous
 62
     7
370
    25
100
AcDbLine
 10
395.1396054516
 20
495.7933566563
 30
0.0
 11
395.1396054516
 21
477.7996303017
 31
0.0
  0
LINE
  5
D2
330
1F
100
AcDbEntity
  8
0
  6
Continuous
 62
     7
370
    25
100
AcDbLine
 10
305.1999859556
 20
577.7727203017
 30
0.0
 11
325.8452675352
 21
577.7727203017
 31
0.0
  0
SPLINE
  5
D3
330
1F
100
AcDbEntity
  8
0
  6
Continuous
 62
     7
370
    25
100
AcDbSpline
210
0.0
220
0.0
230
1.0
 70
     8
 71
     3
 72
    19
 73
    15
 74
     0
 42
0.00000001
 43
0.00000001
 40
0.0
 40
0.0
 40
0.0
 40
0.0
 40
0.1261608746193329
 40
0.2434627142701514
 40
0.3520857029840126
 40
0.452256869292642
 40
0.5442658266444377
 40
0.6284864339631461
 40
0.7029938767558164
 40
0.7712472163195057
 40
0.8339948169491788
 40
0.8921978074312599
 40
0.9470567037966179
 40
1.0
 40
1.0
 40
1.0
 40
1.0
 10
305.199985955632
 20
577.7727203016996
 30
0.0
 10
307.6995017570774
 20
572.4288888174697
 30
0.0
 10
312.5230169967837
 20
562.1164704732047
 30
0.0
 10
320.1525055147051
 20
547.5222923808784
 30
0.0
 10
327.7507664386475
 20
534.2978344466821
 30
0.0
 10
335.3568800883742
 20
522.4591495951718
 30
0.0
 10
342.9631472123314
 20
512.000420114687
 30
0.0
 10
350.5018066911338
 20
503.0075012246386
 30
0.0
 10
357.9659876027585
 20
495.4435664640447
 30
0.0
 10
365.3482572550604
 20
489.2677664239675
 30
0.0
 10
372.7497744771047
 20
484.3749601500632
 30
0.0
 10
380.1789695228715
 20
480.8121107754582
 30
0.0
 10
387.6337091900969
 20
478.4599511221296
 30
0.0
 10
392.6674558934553
 20
478.0171142327085
 30
0.0
 10
395.1396054516264
 20
477.7996303017444
 30
0.0
  0
LINE
  5
D4
330
1F
100
AcDbEntity
  8
0
  6
Continuous
 62
     7
370
    25
100
AcDbLine
 10
127.2873460298
 20
583.7196270038
 30
0.0
 11
156.1372395018
 21
583.7196270038
 31
0.0
  0
LINE
  5
D5
330
1F
100
AcDbEntity
  8
0
  6
Continuous
 62
     7
370
    25
100
AcDbLine
 10
193.6372395018
 20
591.2196270038
 30
0.0
 11
156.1372395018
 21
591.2196270038
 31
0.0
  0
LINE
  5
D6
330
1F
100
AcDbEntity
  8
0
  6
Continuous
 62
     7
370
    25
100
AcDbLine
 10
193.6372395018
 20
583.7196270038
 30
0.0
 11
214.2825210792
 21
583.7196270038
 31
0.0
  0
SPLINE
  5
D7
330
1F
100
AcDbEntity
  8
0
  6
Continuous
 62
     7
370
    25
100
AcDbSpline
210
0.0
220
0.0
230
1.0
 70
     8
 71
     3
 72
    19
 73
    15
 74
     0
 42
0.00000001
 43
0.00000001
 40
0.0
 40
0.0
 40
0.0
 40
0.0
 40
0.0529432962025238
 40
0.1078021925672368
 40
0.16600518304875
 40
0.2287527836777664
 40
0.2970061232405787
 40
0.3715135660320549
 40
0.4557341733524677
 40
0.5477431307061104
 40
0.6479142970167284
 40
0.7565372857327206
 40
0.8738391253858114
 40
1.0
 40
1.0
 40
1.0
 40
1.0
 10
124.3429015853156
 20
483.7465370038507
 30
0.0
 10
126.8150511433941
 20
483.9640209349628
 30
0.0
 10
131.8487978465749
 20
484.4068578246859
 30
0.0
 10
139.3035375135057
 20
486.7590174781948
 30
0.0
 10
146.7327325589802
 20
490.3218668529197
 30
0.0
 10
154.134249780737
 20
495.2146731268302
 30
0.0
 10
161.5165194327556
 20
501.390473166819
 30
0.0
 10
168.9807003442052
 20
508.9544079273348
 30
0.0
 10
176.519359822926
 20
517.9473268173651
 30
0.0
 10
184.1256269468829
 20
528.4060562979298
 30
0.0
 10
191.7317405966095
 20
540.24474114952
 30
0.0
 10
199.330001520552
 20
553.4691990837963
 30
0.0
 10
206.9594900383093
 20
568.0633771758896
 30
0.0
 10
211.7830052778815
 20
578.3757955198798
 30
0.0
 10
214.282521079185
 20
583.7196270038125
 30
0.0
  0
LINE
  5
D8
330
1F
100
AcDbEntity
  8
0
  6
Continuous
 62
     7
370
    25
100
AcDbLine
 10
52.0485636689
 20
591.2196270038
 30
0.0
 11
89.5485636689
 21
591.2196270038
 31
0.0
  0
LINE
  5
D9
330
1F
100
AcDbEntity
  8
0
  6
Continuous
 62
     7
370
    25
100
AcDbLine
 10
89.5485636689
 20
583.7196270038
 30
0.0
 11
89.5485636689
 21
591.2196270038
 31
0.0
  0
LINE
  5
DA
330
1F
100
AcDbEntity
  8
0
  6
Continuous
 62
     7
370
    25
100
AcDbLine
 10
193.6372395018
 20
583.7196270038
 30
0.0
 11
193.6372395018
 21
591.2196270038
 31
0.0
  0
ARC
  5
DB
330
1F
100
AcDbEntity
  8
0
  6
Continuous
 62
     7
370
    25
100
AcDbCircle
 10
122.8429015853
 20
524.6839340336
 30
0.0
 40
19.99999999999995
100
AcDbArc
 50
102.8395884069
 51
265.6987776953
  0
LINE
  5
DC
330
1F
100
AcDbEntity
  8
0
  6
Continuous
 62
     7
370
    25
100
AcDbLine
 10
121.3429015853
 20
504.7402633584
 30
0.0
 11
124.3429015853
 21
504.7402633584
 31
0.0
  0
ARC
  5
DD
330
1F
100
AcDbEntity
  8
0
  6
Continuous
 62
     7
370
    25
100
AcDbCircle
 10
122.8429015853
 20
524.6839340336
 30
0.0
 40
20.00000000000004
100
AcDbArc
 50
274.3012223047
 51
77.1604115931
  0
LINE
  5
DE
330
1F
100
AcDbEntity
  8
0
  6
Continuous
 62
     7
370
    25
100
AcDbLine
 10
127.2873460298
 20
544.1838548944
 30
0.0
 11
127.2873460298
 21
583.7196270038
 31
0.0
  0
LINE
  5
DF
330
1F
100
AcDbEntity
  8
0
  6
Continuous
 62
     7
370
    25
100
AcDbLine
 10
121.3429015853
 20
501.7402633584
 30
0.0
 11
121.3429015853
 21
483.7465370039
 31
0.0
  0
LINE
  5
E0
330
1F
100
AcDbEntity
  8
0
  6
Continuous
 62
     7
370
    25
100
AcDbLine
 10
156.1372395018
 20
583.7196270038
 30
0.0
 11
156.1372395018
 21
591.2196270038
 31
0.0
  0
LINE
  5
E1
330
1F
100
AcDbEntity
  8
0
  6
Continuous
 62
     7
370
    25
100
AcDbLine
 10
31.4032820893
 20
583.7196270038
 30
0.0
 11
52.0485636689
 21
583.7196270038
 31
0.0
  0
LINE
  5
E2
330
1F
100
AcDbEntity
  8
0
  6
Continuous
 62
     7
370
    25
100
AcDbLine
 10
124.3429015853
 20
501.7402633584
 30
0.0
 11
124.3429015853
 21
483.7465370039
 31
0.0
  0
LINE
  5
E3
330
1F
100
AcDbEntity
  8
0
  6
Continuous
 62
     7
370
    25
100
AcDbLine
 10
89.5485636689
 20
583.7196270038
 30
0.0
 11
118.3984571409
 21
583.7196270038
 31
0.0
  0
LINE
  5
E4
330
1F
100
AcDbEntity
  8
0
  6
Continuous
 62
     7
370
    25
100
AcDbLine
 10
118.3984571409
 20
583.7196270038
 30
0.0
 11
118.3984571409
 21
544.1838548944
 31
0.0
  0
SPLINE
  5
E5
330
1F
100
AcDbEntity
  8
0
  6
Continuous
 62
     7
370
    25
100
AcDbSpline
210
0.0
220
0.0
230
1.0
 70
     8
 71
     3
 72
    19
 73
    15
 74
     0
 42
0.00000001
 43
0.00000001
 40
0.0
 40
0.0
 40
0.0
 40
0.0
 40
0.1261608746193329
 40
0.2434627142701513
 40
0.3520857029840126
 40
0.452256869292642
 40
0.5442658266444377
 40
0.6284864339631461
 40
0.7029938767558164
 40
0.7712472163195057
 40
0.8339948169491788
 40
0.8921978074312601
 40
0.9470567037966179
 40
1.0
 40
1.0
 40
1.0
 40
1.0
 10
31.40328208932125
 20
583.7196270038125
 30
0.0
 10
33.90279789076664
 20
578.3757955195825
 30
0.0
 10
38.7263131304729
 20
568.0633771753177
 30
0.0
 10
46.35580164839426
 20
553.4691990829913
 30
0.0
 10
53.9540625723367
 20
540.244741148795
 30
0.0
 10
61.56017622206342
 20
528.4060562972847
 30
0.0
 10
69.16644334602051
 20
517.9473268167998
 30
0.0
 10
76.70510282482304
 20
508.9544079267516
 30
0.0
 10
84.1692837364477
 20
501.3904731661576
 30
0.0
 10
91.55155338874962
 20
495.2146731260804
 30
0.0
 10
98.95307061079397
 20
490.3218668521761
 30
0.0
 10
106.3822656565606
 20
486.7590174775711
 30
0.0
 10
113.8370053237861
 20
484.4068578242424
 30
0.0
 10
118.8707520271444
 20
483.9640209348215
 30
0.0
 10
121.3429015853156
 20
483.7465370038573
 30
0.0
  0
LINE
  5
E6
330
1F
100
AcDbEntity
  8
0
  6
Continuous
 62
     7
370
    25
100
AcDbLine
 10
52.0485636689
 20
583.7196270038
 30
0.0
 11
52.0485636689
 21
591.2196270038
 31
0.0
  0
LINE
  5
E7
330
1F
100
AcDbEntity
  8
0
  6
Continuous
 62
     7
370
    25
100
AcDbLine
 10
121.3429015853
 20
501.7402633584
 30
0.0
 11
124.3429015853
 21
501.7402633584
 31
0.0
  0
LINE
  5
E8
330
1F
100
AcDbEntity
  8
0
  6
Continuous
 62
     7
370
    25
100
AcDbLine
 10
30.1579523817
 20
319.9033270415
 30
0.0
 11
30.1579523817
 21
327.4033270415
 31
0.0
  0
LINE
  5
E9
330
1F
100
AcDbEntity
  8
0
  6
Continuous
 62
     7
370
    25
100
AcDbLine
 10
48.9079523817
 20
319.9033270415
 30
0.0
 11
48.9079523817
 21
327.4033270415
 31
0.0
  0
SPLINE
  5
EA
330
1F
100
AcDbEntity
  8
0
  6
Continuous
 62
     7
370
    25
100
AcDbSpline
210
0.0
220
0.0
230
1.0
 70
     8
 71
     3
 72
    19
 73
    15
 74
     0
 42
0.00000001
 43
0.00000001
 40
0.0
 40
0.0
 40
0.0
 40
0.0
 40
0.0048411277930689
 40
0.0271325739232605
 40
0.0564526927627175
 40
0.1074314360847509
 40
0.1719885192540004
 40
0.2502888791715679
 40
0.3424236738931684
 40
0.4484483837151447
 40
0.5661349970195942
 40
0.6972784923622406
 40
0.8418959277232407
 40
1.0
 40
1.0
 40
1.0
 40
1.0
 10
41.03295238174989
 20
243.0985641721292
 30
0.0
 10
41.10975407430942
 20
243.1985324407973
 30
0.0
 10
41.54019666741482
 20
243.7588143741725
 30
0.0
 10
42.22211863681868
 20
245.0729821451203
 30
0.0
 10
43.19287513148009
 20
247.5601567492617
 30
0.0
 10
44.23908154758819
 20
251.1890501601578
 30
0.0
 10
45.36269100463797
 20
256.107995862307
 30
0.0
 10
46.49057705700413
 20
262.1211970719742
 30
0.0
 10
47.62349681997441
 20
269.2277726451672
 30
0.0
 10
48.75083635230335
 20
277.3716218829874
 30
0.0
 10
49.87413196831134
 20
286.539692588589
 30
0.0
 10
50.99191745308726
 20
296.719569546695
 30
0.0
 10
52.11588389550572
 20
307.9565791221413
 30
0.0
 10
52.81958908982509
 20
315.8045322288295
 30
0.0
 10
53.18711717784366
 20
319.9033270415495
 30
0.0
  0
LINE
  5
EB
330
1F
100
AcDbEntity
  8
0
  6
Continuous
 62
     7
370
    25
100
AcDbLine
 10
38.0329523817
 20
264.8485641721
 30
0.0
 11
38.0329523817
 21
243.1569756746
 31
0.0
  0
LINE
  5
EC
330
1F
100
AcDbEntity
  8
0
  6
Continuous
 62
     7
370
    25
100
AcDbLine
 10
25.9253365501
 20
319.9033270415
 30
0.0
 11
30.1579523817
 21
319.9033270415
 31
0.0
  0
LINE
  5
ED
330
1F
100
AcDbEntity
  8
0
  6
Continuous
 62
     7
370
    25
100
AcDbLine
 10
38.0329523817
 20
264.8485641721
 30
0.0
 11
41.0329523817
 21
264.8485641721
 31
0.0
  0
SPLINE
  5
EE
330
1F
100
AcDbEntity
  8
0
  6
Continuous
 62
     7
370
    25
100
AcDbSpline
210
0.0
220
0.0
230
1.0
 70
     8
 71
     3
 72
    19
 73
    15
 74
     0
 42
0.00000001
 43
0.00000001
 40
0.0
 40
0.0
 40
0.0
 40
0.0
 40
0.161007609470893
 40
0.3080205451587558
 40
0.4410523297926821
 40
0.5601212497387604
 40
0.6652528776262738
 40
0.7549770504031282
 40
0.8313472952756347
 40
0.8944520700882941
 40
0.9444502909296438
 40
0.9737984443191063
 40
0.9961112045055129
 40
1.0
 40
1.0
 40
1.0
 40
1.0
 10
25.92533655005053
 20
319.9033270415497
 30
0.0
 10
26.29939468158629
 20
315.7332577740112
 30
0.0
 10
27.01499806191931
 20
307.7555788720139
 30
0.0
 10
28.15925666541577
 20
296.3435979726479
 30
0.0
 10
29.29708956588714
 20
286.0275274314191
 30
0.0
 10
30.4347258793457
 20
276.8077952860568
 30
0.0
 10
31.56453884503049
 20
268.7226538828291
 30
0.0
 10
32.68566072782517
 20
261.7589687129595
 30
0.0
 10
33.79383845467581
 20
255.9013953940511
 30
0.0
 10
34.89766323716783
 20
251.0991173507326
 30
0.0
 10
35.92958921204073
 20
247.535475580499
 30
0.0
 10
36.88970754861639
 20
245.0724602642661
 30
0.0
 10
37.56188496672016
 20
243.7820439699821
 30
0.0
 10
37.9720729047876
 20
243.2377578082786
 30
0.0
 10
38.03295238174989
 20
243.1569756746098
 30
0.0
  0
LINE
  5
EF
330
1F
100
AcDbEntity
  8
0
  6
Continuous
 62
     7
370
    25
100
AcDbLine
 10
48.9079523817
 20
319.9033270415
 30
0.0
 11
53.1871171778
 21
319.9033270415
 31
0.0
  0
LINE
  5
F0
330
1F
100
AcDbEntity
  8
0
  6
Continuous
 62
     7
370
    25
100
AcDbLine
 10
41.0329523817
 20
264.8485641721
 30
0.0
 11
41.0329523817
 21
243.0985641721
 31
0.0
  0
LINE
  5
F1
330
1F
100
AcDbEntity
  8
0
  6
Continuous
 62
     7
370
    25
100
AcDbLine
 10
48.9079523817
 20
327.4033270415
 30
0.0
 11
30.1579523817
 21
327.4033270415
 31
0.0
  0
LINE
  5
F2
330
1F
100
AcDbEntity
  8
0
  6
Continuous
 62
     7
370
    25
100
AcDbLine
 10
487.9376391151
 20
484.1630812658
 30
0.0
 11
469.1876391151
 21
484.1630812658
 31
0.0
  0
LINE
  5
F3
330
1F
100
AcDbEntity
  8
0
  6
Continuous
 62
     7
370
    25
100
AcDbLine
 10
487.9376391151
 20
476.6630812658
 30
0.0
 11
487.9376391151
 21
484.1630812658
 31
0.0
  0
SPLINE
  5
F4
330
1F
100
AcDbEntity
  8
0
  6
Continuous
 62
     7
370
    25
100
AcDbSpline
210
0.0
220
0.0
230
1.0
 70
     8
 71
     3
 72
    19
 73
    15
 74
     0
 42
0.00000001
 43
0.00000001
 40
0.0
 40
0.0
 40
0.0
 40
0.0
 40
0.004841127793069
 40
0.0271325739232604
 40
0.0564526927627176
 40
0.1074314360847508
 40
0.1719885192540004
 40
0.250288879171568
 40
0.3424236738931684
 40
0.4484483837151448
 40
0.5661349970195942
 40
0.6972784923622405
 40
0.8418959277232407
 40
1.0
 40
1.0
 40
1.0
 40
1.0
 10
480.062639115135
 20
399.8583183963567
 30
0.0
 10
480.1394408076945
 20
399.9582866650247
 30
0.0
 10
480.5698834008
 20
400.5185685983999
 30
0.0
 10
481.2518053702038
 20
401.8327363693478
 30
0.0
 10
482.2225618648652
 20
404.3199109734891
 30
0.0
 10
483.2687682809734
 20
407.9488043843853
 30
0.0
 10
484.3923777380231
 20
412.8677500865344
 30
0.0
 10
485.5202637903892
 20
418.8809512962016
 30
0.0
 10
486.6531835533595
 20
425.9875268693947
 30
0.0
 10
487.7805230856883
 20
434.1313761072149
 30
0.0
 10
488.9038187016965
 20
443.2994468128165
 30
0.0
 10
490.0216041864724
 20
453.4793237709225
 30
0.0
 10
491.1455706288909
 20
464.7163333463687
 30
0.0
 10
491.8492758232102
 20
472.5642864530569
 30
0.0
 10
492.2168039112288
 20
476.663081265777
 30
0.0
  0
LINE
  5
F5
330
1F
100
AcDbEntity
  8
0
  6
Continuous
 62
     7
370
    25
100
AcDbLine
 10
477.0626391151
 20
421.6083183964
 30
0.0
 11
480.0626391151
 21
421.6083183964
 31
0.0
  0
SPLINE
  5
F6
330
1F
100
AcDbEntity
  8
0
  6
Continuous
 62
     7
370
    25
100
AcDbSpline
210
0.0
220
0.0
230
1.0
 70
     8
 71
     3
 72
    19
 73
    15
 74
     0
 42
0.00000001
 43
0.00000001
 40
0.0
 40
0.0
 40
0.0
 40
0.0
 40
0.1610076094708928
 40
0.3080205451587558
 40
0.4410523297926818
 40
0.56012124973876
 40
0.6652528776262738
 40
0.7549770504031282
 40
0.8313472952756347
 40
0.8944520700882941
 40
0.9444502909296438
 40
0.9737984443191063
 40
0.9961112045055129
 40
1.0
 40
1.0
 40
1.0
 40
1.0
 10
464.9550232834357
 20
476.6630812657771
 30
0.0
 10
465.3290814149713
 20
472.4930119982387
 30
0.0
 10
466.0446847953044
 20
464.5153330962414
 30
0.0
 10
467.1889433988009
 20
453.1033521968754
 30
0.0
 10
468.3267762992721
 20
442.7872816556465
 30
0.0
 10
469.4644126127308
 20
433.5675495102842
 30
0.0
 10
470.5942255784155
 20
425.4824081070565
 30
0.0
 10
471.7153474612102
 20
418.5187229371869
 30
0.0
 10
472.8235251880609
 20
412.6611496182785
 30
0.0
 10
473.927349970553
 20
407.8588715749601
 30
0.0
 10
474.9592759454257
 20
404.2952298047264
 30
0.0
 10
475.9193942820016
 20
401.8322144884936
 30
0.0
 10
476.591571700105
 20
400.5417981942095
 30
0.0
 10
477.0017596381727
 20
399.9975120325061
 30
0.0
 10
477.062639115135
 20
399.9167298988373
 30
0.0
  0
LINE
  5
F7
330
1F
100
AcDbEntity
  8
0
  6
Continuous
 62
     7
370
    25
100
AcDbLine
 10
480.0626391151
 20
421.6083183964
 30
0.0
 11
480.0626391151
 21
399.8583183964
 31
0.0
  0
LINE
  5
F8
330
1F
100
AcDbEntity
  8
0
  6
Continuous
 62
     7
370
    25
100
AcDbLine
 10
469.1876391151
 20
476.6630812658
 30
0.0
 11
469.1876391151
 21
484.1630812658
 31
0.0
  0
LINE
  5
F9
330
1F
100
AcDbEntity
  8
0
  6
Continuous
 62
     7
370
    25
100
AcDbLine
 10
477.0626391151
 20
421.6083183964
 30
0.0
 11
477.0626391151
 21
399.9167298988
 31
0.0
  0
LINE
  5
FA
330
1F
100
AcDbEntity
  8
0
  6
Continuous
 62
     7
370
    25
100
AcDbLine
 10
487.9376391151
 20
476.6630812658
 30
0.0
 11
492.2168039112
 21
476.6630812658
 31
0.0
  0
LINE
  5
FB
330
1F
100
AcDbEntity
  8
0
  6
Continuous
 62
     7
370
    25
100
AcDbLine
 10
464.9550232834
 20
476.6630812658
 30
0.0
 11
469.1876391151
 21
476.6630812658
 31
0.0
  0
LINE
  5
FC
330
1F
100
AcDbEntity
  8
0
  6
Continuous
 62
     7
370
    25
100
AcDbLine
 10
50.3311341247
 20
76.3557165108
 30
0.0
 11
54.6102989208
 21
76.3557165108
 31
0.0
  0
LINE
  5
FD
330
1F
100
AcDbEntity
  8
0
  6
Continuous
 62
     7
370
    25
100
AcDbLine
 10
39.4561341247
 20
21.3009536413
 30
0.0
 11
42.4561341247
 21
21.3009536413
 31
0.0
  0
LINE
  5
FE
330
1F
100
AcDbEntity
  8
0
  6
Continuous
 62
     7
370
    25
100
AcDbLine
 10
27.348518293
 20
76.3557165108
 30
0.0
 11
31.5811341247
 21
76.3557165108
 31
0.0
  0
LINE
  5
FF
330
1F
100
AcDbEntity
  8
0
  6
Continuous
 62
     7
370
    25
100
AcDbLine
 10
31.5811341247
 20
76.3557165108
 30
0.0
 11
31.5811341247
 21
83.8557165108
 31
0.0
  0
LINE
  5
100
330
1F
100
AcDbEntity
  8
0
  6
Continuous
 62
     7
370
    25
100
AcDbLine
 10
50.3311341247
 20
83.8557165108
 30
0.0
 11
31.5811341247
 21
83.8557165108
 31
0.0
  0
LINE
  5
101
330
1F
100
AcDbEntity
  8
0
  6
Continuous
 62
     7
370
    25
100
AcDbLine
 10
50.3311341247
 20
76.3557165108
 30
0.0
 11
50.3311341247
 21
83.8557165108
 31
0.0
  0
SPLINE
  5
102
330
1F
100
AcDbEntity
  8
0
  6
Continuous
 62
     7
370
    25
100
AcDbSpline
210
0.0
220
0.0
230
1.0
 70
     8
 71
     3
 72
    19
 73
    15
 74
     0
 42
0.00000001
 43
0.00000001
 40
0.0
 40
0.0
 40
0.0
 40
0.0
 40
0.0048411277930687
 40
0.0271325739232601
 40
0.0564526927627171
 40
0.1074314360847507
 40
0.1719885192540002
 40
0.2502888791715681
 40
0.342423673893168
 40
0.4484483837151448
 40
0.5661349970195944
 40
0.6972784923622405
 40
0.8418959277232407
 40
1.0
 40
1.0
 40
1.0
 40
1.0
 10
42.45613412469468
 20
-0.4490463586513394
 30
0.0
 10
42.53293581725421
 20
-0.3490780899832457
 30
0.0
 10
42.96337841035974
 20
0.211203843392016
 30
0.0
 10
43.64530037976333
 20
1.525371614339632
 30
0.0
 10
44.61605687442499
 20
4.012546218481184
 30
0.0
 10
45.66226329053297
 20
7.641439629377189
 30
0.0
 10
46.78587274758281
 20
12.56038533152654
 30
0.0
 10
47.91375879994886
 20
18.57358654119356
 30
0.0
 10
49.04667856291914
 20
25.68016211438667
 30
0.0
 10
50.17401809524813
 20
33.82401135220697
 30
0.0
 10
51.29731371125615
 20
42.99208205780841
 30
0.0
 10
52.41509919603202
 20
53.1719590159144
 30
0.0
 10
53.53906563845051
 20
64.4089685913608
 30
0.0
 10
54.24277083276993
 20
72.2569216980489
 30
0.0
 10
54.61029892078847
 20
76.35571651076897
 30
0.0
  0
LINE
  5
103
330
1F
100
AcDbEntity
  8
0
  6
Continuous
 62
     7
370
    25
100
AcDbLine
 10
42.4561341247
 20
21.3009536413
 30
0.0
 11
42.4561341247
 21
-0.4490463587
 31
0.0
  0
SPLINE
  5
104
330
1F
100
AcDbEntity
  8
0
  6
Continuous
 62
     7
370
    25
100
AcDbSpline
210
0.0
220
0.0
230
1.0
 70
     8
 71
     3
 72
    19
 73
    15
 74
     0
 42
0.00000001
 43
0.00000001
 40
0.0
 40
0.0
 40
0.0
 40
0.0
 40
0.1610076094708928
 40
0.3080205451587558
 40
0.4410523297926822
 40
0.5601212497387604
 40
0.6652528776262738
 40
0.7549770504031279
 40
0.8313472952756346
 40
0.8944520700882946
 40
0.944450290929644
 40
0.9737984443191069
 40
0.996111204505513
 40
1.0
 40
1.0
 40
1.0
 40
1.0
 10
27.34851829299531
 20
76.35571651076914
 30
0.0
 10
27.7225764245311
 20
72.1856472432307
 30
0.0
 10
28.43817980486407
 20
64.20796834123333
 30
0.0
 10
29.58243840836058
 20
52.79598744186737
 30
0.0
 10
30.72027130883187
 20
42.47991690063851
 30
0.0
 10
31.85790762229052
 20
33.26018475527626
 30
0.0
 10
32.98772058797525
 20
25.17504335204851
 30
0.0
 10
34.10884247076986
 20
18.21135818217889
 30
0.0
 10
35.2170201976206
 20
12.35378486327054
 30
0.0
 10
36.3208449801127
 20
7.551506819952147
 30
0.0
 10
37.3527709549854
 20
3.987865049718375
 30
0.0
 10
38.31288929156129
 20
1.5248497334856
 30
0.0
 10
38.98506670966476
 20
0.2344334392015424
 30
0.0
 10
39.39525464773244
 20
-0.309852722501891
 30
0.0
 10
39.45613412469468
 20
-0.3906348561706907
 30
0.0
  0
LINE
  5
105
330
1F
100
AcDbEntity
  8
0
  6
Continuous
 62
     7
370
    25
100
AcDbLine
 10
39.4561341247
 20
21.3009536413
 30
0.0
 11
39.4561341247
 21
-0.3906348562
 31
0.0
  0
LINE
  5
106
330
1F
100
AcDbEntity
  8
0
  6
Continuous
 62
     7
370
    25
100
AcDbLine
 10
483.7865708973
 20
89.8179854412
 30
0.0
 11
488.0657356934
 21
89.8179854412
 31
0.0
  0
SPLINE
  5
107
330
1F
100
AcDbEntity
  8
0
  6
Continuous
 62
     7
370
    25
100
AcDbSpline
210
0.0
220
0.0
230
1.0
 70
     8
 71
     3
 72
    19
 73
    15
 74
     0
 42
0.00000001
 43
0.00000001
 40
0.0
 40
0.0
 40
0.0
 40
0.0
 40
0.0048411277930687
 40
0.0271325739232601
 40
0.0564526927627171
 40
0.1074314360847507
 40
0.1719885192540002
 40
0.2502888791715681
 40
0.342423673893168
 40
0.4484483837151444
 40
0.5661349970195939
 40
0.6972784923622405
 40
0.8418959277232407
 40
1.0
 40
1.0
 40
1.0
 40
1.0
 10
475.9115708973
 20
13.01322257178433
 30
0.0
 10
475.9883725898596
 20
13.11319084045237
 30
0.0
 10
476.418815182965
 20
13.67347277382763
 30
0.0
 10
477.1007371523689
 20
14.98764054477536
 30
0.0
 10
478.0714936470302
 20
17.47481514891686
 30
0.0
 10
479.1177000631384
 20
21.10370855981292
 30
0.0
 10
480.2413095201879
 20
26.02265426196221
 30
0.0
 10
481.3691955725544
 20
32.03585547162918
 30
0.0
 10
482.5021153355244
 20
39.14243104482235
 30
0.0
 10
483.6294548678534
 20
47.28628028264251
 30
0.0
 10
484.7527504838616
 20
56.45435098824414
 30
0.0
 10
485.8705359686374
 20
66.63422794635007
 30
0.0
 10
486.9945024110559
 20
77.87123752179644
 30
0.0
 10
487.6982076053753
 20
85.7191906284846
 30
0.0
 10
488.0657356933938
 20
89.81798544120464
 30
0.0
  0
LINE
  5
108
330
1F
100
AcDbEntity
  8
0
  6
Continuous
 62
     7
370
    25
100
AcDbLine
 10
475.9115708973
 20
34.7632225718
 30
0.0
 11
475.9115708973
 21
13.0132225718
 31
0.0
  0
LINE
  5
109
330
1F
100
AcDbEntity
  8
0
  6
Continuous
 62
     7
370
    25
100
AcDbLine
 10
472.9115708973
 20
34.7632225718
 30
0.0
 11
475.9115708973
 21
34.7632225718
 31
0.0
  0
LINE
  5
10A
330
1F
100
AcDbEntity
  8
0
  6
Continuous
 62
     7
370
    25
100
AcDbLine
 10
472.9115708973
 20
34.7632225718
 30
0.0
 11
472.9115708973
 21
13.0716340743
 31
0.0
  0
SPLINE
  5
10B
330
1F
100
AcDbEntity
  8
0
  6
Continuous
 62
     7
370
    25
100
AcDbSpline
210
0.0
220
0.0
230
1.0
 70
     8
 71
     3
 72
    19
 73
    15
 74
     0
 42
0.00000001
 43
0.00000001
 40
0.0
 40
0.0
 40
0.0
 40
0.0
 40
0.1610076094708928
 40
0.3080205451587558
 40
0.4410523297926822
 40
0.5601212497387604
 40
0.6652528776262738
 40
0.7549770504031279
 40
0.8313472952756346
 40
0.8944520700882946
 40
0.944450290929644
 40
0.9737984443191069
 40
0.996111204505513
 40
1.0
 40
1.0
 40
1.0
 40
1.0
 10
460.8039550656007
 20
89.81798544120481
 30
0.0
 10
461.1780131971364
 20
85.64791617366635
 30
0.0
 10
461.8936165774694
 20
77.670237271669
 30
0.0
 10
463.0378751809658
 20
66.25825637230307
 30
0.0
 10
464.1757080814373
 20
55.94218583107416
 30
0.0
 10
465.3133443948957
 20
46.72245368571198
 30
0.0
 10
466.4431573605808
 20
38.63731228248412
 30
0.0
 10
467.5642792433753
 20
31.67362711261457
 30
0.0
 10
468.6724569702261
 20
25.81605379370622
 30
0.0
 10
469.7762817527179
 20
21.01377575038782
 30
0.0
 10
470.8082077275909
 20
17.45013398015399
 30
0.0
 10
471.7683260641665
 20
14.98711866392122
 30
0.0
 10
472.4405034822701
 20
13.69670236963733
 30
0.0
 10
472.8506914203377
 20
13.15241620793378
 30
0.0
 10
472.9115708973
 20
13.07163407426498
 30
0.0
  0
LINE
  5
10C
330
1F
100
AcDbEntity
  8
0
  6
Continuous
 62
     7
370
    25
100
AcDbLine
 10
460.8039550656
 20
89.8179854412
 30
0.0
 11
465.0365708973
 21
89.8179854412
 31
0.0
  0
LINE
  5
10D
330
1F
100
AcDbEntity
  8
0
  6
Continuous
 62
     7
370
    25
100
AcDbLine
 10
465.0365708973
 20
89.8179854412
 30
0.0
 11
465.0365708973
 21
97.3179854412
 31
0.0
  0
LINE
  5
10E
330
1F
100
AcDbEntity
  8
0
  6
Continuous
 62
     7
370
    25
100
AcDbLine
 10
483.7865708973
 20
97.3179854412
 30
0.0
 11
465.0365708973
 21
97.3179854412
 31
0.0
  0
LINE
  5
10F
330
1F
100
AcDbEntity
  8
0
  6
Continuous
 62
     7
370
    25
100
AcDbLine
 10
483.7865708973
 20
89.8179854412
 30
0.0
 11
483.7865708973
 21
97.3179854412
 31
0.0
  0
LINE
  5
110
330
1F
100
AcDbEntity
  8
0
  6
Continuous
 62
     7
370
    25
100
AcDbLine
 10
241.9414640649
 20
574.3872199024
 30
0.0
 11
246.1740798966
 21
574.3872199024
 31
0.0
  0
LINE
  5
111
330
1F
100
AcDbEntity
  8
0
  6
Continuous
 62
     7
370
    25
100
AcDbLine
 10
264.9240798966
 20
574.3872199024
 30
0.0
 11
269.2032446927
 21
574.3872199024
 31
0.0
  0
LINE
  5
112
330
1F
100
AcDbEntity
  8
0
  6
Continuous
 62
     7
370
    25
100
AcDbLine
 10
264.9240798966
 20
581.8872199024
 30
0.0
 11
246.1740798966
 21
581.8872199024
 31
0.0
  0
LINE
  5
113
330
1F
100
AcDbEntity
  8
0
  6
Continuous
 62
     7
370
    25
100
AcDbLine
 10
254.0490798966
 20
519.332457033
 30
0.0
 11
257.0490798966
 21
519.332457033
 31
0.0
  0
SPLINE
  5
114
330
1F
100
AcDbEntity
  8
0
  6
Continuous
 62
     7
370
    25
100
AcDbSpline
210
0.0
220
0.0
230
1.0
 70
     8
 71
     3
 72
    19
 73
    15
 74
     0
 42
0.00000001
 43
0.00000001
 40
0.0
 40
0.0
 40
0.0
 40
0.0
 40
0.0048411277930686
 40
0.0271325739232605
 40
0.0564526927627175
 40
0.1074314360847507
 40
0.1719885192540002
 40
0.2502888791715676
 40
0.3424236738931679
 40
0.4484483837151443
 40
0.5661349970195938
 40
0.6972784923622399
 40
0.8418959277232405
 40
1.0
 40
1.0
 40
1.0
 40
1.0
 10
257.0490798965801
 20
497.5824570330274
 30
0.0
 10
257.1258815891396
 20
497.6824253016955
 30
0.0
 10
257.5563241822451
 20
498.2427072350707
 30
0.0
 10
258.2382461516489
 20
499.5568750060186
 30
0.0
 10
259.2090026463104
 20
502.0440496101598
 30
0.0
 10
260.2552090624184
 20
505.672943021056
 30
0.0
 10
261.3788185194681
 20
510.5918887232053
 30
0.0
 10
262.5067045718343
 20
516.6050899328723
 30
0.0
 10
263.6396243348046
 20
523.7116655060654
 30
0.0
 10
264.7669638671335
 20
531.8555147438856
 30
0.0
 10
265.8902594831416
 20
541.0235854494873
 30
0.0
 10
267.0080449679174
 20
551.203462407593
 30
0.0
 10
268.132011410336
 20
562.4404719830396
 30
0.0
 10
268.8357166046553
 20
570.2884250897278
 30
0.0
 10
269.2032446926739
 20
574.3872199024478
 30
0.0
  0
LINE
  5
115
330
1F
100
AcDbEntity
  8
0
  6
Continuous
 62
     7
370
    25
100
AcDbLine
 10
254.0490798966
 20
519.332457033
 30
0.0
 11
254.0490798966
 21
497.6408685355
 31
0.0
  0
LINE
  5
116
330
1F
100
AcDbEntity
  8
0
  6
Continuous
 62
     7
370
    25
100
AcDbLine
 10
246.1740798966
 20
574.3872199024
 30
0.0
 11
246.1740798966
 21
581.8872199024
 31
0.0
  0
LINE
  5
117
330
1F
100
AcDbEntity
  8
0
  6
Continuous
 62
     7
370
    25
100
AcDbLine
 10
264.9240798966
 20
574.3872199024
 30
0.0
 11
264.9240798966
 21
581.8872199024
 31
0.0
  0
LINE
  5
118
330
1F
100
AcDbEntity
  8
0
  6
Continuous
 62
     7
370
    25
100
AcDbLine
 10
257.0490798966
 20
519.332457033
 30
0.0
 11
257.0490798966
 21
497.582457033
 31
0.0
  0
SPLINE
  5
119
330
1F
100
AcDbEntity
  8
0
  6
Continuous
 62
     7
370
    25
100
AcDbSpline
210
0.0
220
0.0
230
1.0
 70
     8
 71
     3
 72
    19
 73
    15
 74
     0
 42
0.00000001
 43
0.00000001
 40
0.0
 40
0.0
 40
0.0
 40
0.0
 40
0.1610076094708925
 40
0.3080205451587559
 40
0.441052329792682
 40
0.5601212497387602
 40
0.6652528776262736
 40
0.7549770504031281
 40
0.8313472952756348
 40
0.8944520700882942
 40
0.9444502909296439
 40
0.9737984443191064
 40
0.996111204505513
 40
1.0
 40
1.0
 40
1.0
 40
1.0
 10
241.9414640648807
 20
574.3872199024478
 30
0.0
 10
242.3155221964165
 20
570.2171506349093
 30
0.0
 10
243.0311255767495
 20
562.239471732912
 30
0.0
 10
244.1753841802459
 20
550.8274908335462
 30
0.0
 10
245.3132170807173
 20
540.5114202923171
 30
0.0
 10
246.4508533941758
 20
531.2916881469549
 30
0.0
 10
247.5806663598607
 20
523.2065467437271
 30
0.0
 10
248.7017882426553
 20
516.2428615738577
 30
0.0
 10
249.809965969506
 20
510.3852882549492
 30
0.0
 10
250.9137907519981
 20
505.5830102116308
 30
0.0
 10
251.9457167268709
 20
502.0193684413971
 30
0.0
 10
252.9058350634467
 20
499.5563531251642
 30
0.0
 10
253.5780124815502
 20
498.2659368308806
 30
0.0
 10
253.9882004196178
 20
497.7216506691768
 30
0.0
 10
254.0490798965801
 20
497.640868535508
 30
0.0
  0
LINE
  5
11A
330
1F
100
AcDbEntity
  8
0
  6
Continuous
 62
     7
370
    25
100
AcDbLine
 10
59.3966277566
 20
486.4194582125
 30
0.0
 11
59.3966277566
 21
493.9194582125
 31
0.0
  0
LINE
  5
11B
330
1F
100
AcDbEntity
  8
0
  6
Continuous
 62
     7
370
    25
100
AcDbLine
 10
78.1466277566
 20
486.4194582125
 30
0.0
 11
78.1466277566
 21
493.9194582125
 31
0.0
  0
LINE
  5
11C
330
1F
100
AcDbEntity
  8
0
  6
Continuous
 62
     7
370
    25
100
AcDbLine
 10
67.2716277566
 20
431.3646953431
 30
0.0
 11
67.2716277566
 21
409.6731068456
 31
0.0
  0
SPLINE
  5
11D
330
1F
100
AcDbEntity
  8
0
  6
Continuous
 62
     7
370
    25
100
AcDbSpline
210
0.0
220
0.0
230
1.0
 70
     8
 71
     3
 72
    19
 73
    15
 74
     0
 42
0.00000001
 43
0.00000001
 40
0.0
 40
0.0
 40
0.0
 40
0.0
 40
0.1610076094708932
 40
0.3080205451587558
 40
0.4410523297926817
 40
0.5601212497387602
 40
0.6652528776262736
 40
0.754977050403128
 40
0.8313472952756347
 40
0.8944520700882941
 40
0.9444502909296437
 40
0.9737984443191062
 40
0.9961112045055128
 40
1.0
 40
1.0
 40
1.0
 40
1.0
 10
55.16401192491302
 20
486.4194582125493
 30
0.0
 10
55.53807005644881
 20
482.2493889450108
 30
0.0
 10
56.2536734367819
 20
474.2717100430134
 30
0.0
 10
57.39793204027821
 20
462.8597291436475
 30
0.0
 10
58.53576494074969
 20
452.5436586024186
 30
0.0
 10
59.67340125420817
 20
443.3239264570563
 30
0.0
 10
60.80321421989304
 20
435.2387850538286
 30
0.0
 10
61.92433610268772
 20
428.275099883959
 30
0.0
 10
63.03251382953834
 20
422.4175265650506
 30
0.0
 10
64.13633861203033
 20
417.6152485217322
 30
0.0
 10
65.16826458690322
 20
414.0516067514985
 30
0.0
 10
66.12838292347892
 20
411.5885914352657
 30
0.0
 10
66.80056034158264
 20
410.2981751409816
 30
0.0
 10
67.21074827965015
 20
409.7538889792781
 30
0.0
 10
67.27162775661242
 20
409.6731068456094
 30
0.0
  0
LINE
  5
11E
330
1F
100
AcDbEntity
  8
0
  6
Continuous
 62
     7
370
    25
100
AcDbLine
 10
55.1640119249
 20
486.4194582125
 30
0.0
 11
59.3966277566
 21
486.4194582125
 31
0.0
  0
SPLINE
  5
11F
330
1F
100
AcDbEntity
  8
0
  6
Continuous
 62
     7
370
    25
100
AcDbSpline
210
0.0
220
0.0
230
1.0
 70
     8
 71
     3
 72
    19
 73
    15
 74
     0
 42
0.00000001
 43
0.00000001
 40
0.0
 40
0.0
 40
0.0
 40
0.0
 40
0.0048411277930688
 40
0.0271325739232604
 40
0.0564526927627176
 40
0.1074314360847508
 40
0.1719885192540003
 40
0.2502888791715678
 40
0.3424236738931681
 40
0.4484483837151445
 40
0.566134997019594
 40
0.6972784923622405
 40
0.8418959277232403
 40
1.0
 40
1.0
 40
1.0
 40
1.0
 10
70.27162775661242
 20
409.6146953431287
 30
0.0
 10
70.34842944917197
 20
409.7146636117968
 30
0.0
 10
70.7788720422774
 20
410.2749455451721
 30
0.0
 10
71.46079401168117
 20
411.5891133161198
 30
0.0
 10
72.43155050634267
 20
414.0762879202612
 30
0.0
 10
73.47775692245068
 20
417.7051813311574
 30
0.0
 10
74.60136637950049
 20
422.6241270333064
 30
0.0
 10
75.72925243186666
 20
428.6373282429738
 30
0.0
 10
76.86217219483693
 20
435.7439038161668
 30
0.0
 10
77.98951172716583
 20
443.8877530539869
 30
0.0
 10
79.11280734317383
 20
453.0558237595885
 30
0.0
 10
80.23059282794983
 20
463.2357007176945
 30
0.0
 10
81.35455927036827
 20
474.4727102931409
 30
0.0
 10
82.05826446468764
 20
482.320663399829
 30
0.0
 10
82.42579255270618
 20
486.419458212549
 30
0.0
  0
LINE
  5
120
330
1F
100
AcDbEntity
  8
0
  6
Continuous
 62
     7
370
    25
100
AcDbLine
 10
70.2716277566
 20
431.3646953431
 30
0.0
 11
70.2716277566
 21
409.6146953431
 31
0.0
  0
LINE
  5
121
330
1F
100
AcDbEntity
  8
0
  6
Continuous
 62
     7
370
    25
100
AcDbLine
 10
67.2716277566
 20
431.3646953431
 30
0.0
 11
70.2716277566
 21
431.3646953431
 31
0.0
  0
LINE
  5
122
330
1F
100
AcDbEntity
  8
0
  6
Continuous
 62
     7
370
    25
100
AcDbLine
 10
78.1466277566
 20
486.4194582125
 30
0.0
 11
82.4257925527
 21
486.4194582125
 31
0.0
  0
LINE
  5
123
330
1F
100
AcDbEntity
  8
0
  6
Continuous
 62
     7
370
    25
100
AcDbLine
 10
78.1466277566
 20
493.9194582125
 30
0.0
 11
59.3966277566
 21
493.9194582125
 31
0.0
  0
LINE
  5
124
330
1F
100
AcDbEntity
  8
0
  6
Continuous
 62
     7
370
    25
100
AcDbLine
 10
431.255280879
 20
476.3941816427
 30
0.0
 11
431.255280879
 21
483.8941816427
 31
0.0
  0
LINE
  5
125
330
1F
100
AcDbEntity
  8
0
  6
Continuous
 62
     7
370
    25
100
AcDbLine
 10
450.005280879
 20
476.3941816427
 30
0.0
 11
450.005280879
 21
483.8941816427
 31
0.0
  0
LINE
  5
126
330
1F
100
AcDbEntity
  8
0
  6
Continuous
 62
     7
370
    25
100
AcDbLine
 10
439.130280879
 20
421.3394187733
 30
0.0
 11
439.130280879
 21
399.6478302758
 31
0.0
  0
LINE
  5
127
330
1F
100
AcDbEntity
  8
0
  6
Continuous
 62
     7
370
    25
100
AcDbLine
 10
450.005280879
 20
483.8941816427
 30
0.0
 11
431.255280879
 21
483.8941816427
 31
0.0
  0
LINE
  5
128
330
1F
100
AcDbEntity
  8
0
  6
Continuous
 62
     7
370
    25
100
AcDbLine
 10
439.130280879
 20
421.3394187733
 30
0.0
 11
442.130280879
 21
421.3394187733
 31
0.0
  0
LINE
  5
129
330
1F
100
AcDbEntity
  8
0
  6
Continuous
 62
     7
370
    25
100
AcDbLine
 10
450.005280879
 20
476.3941816427
 30
0.0
 11
454.2844456751
 21
476.3941816427
 31
0.0
  0
SPLINE
  5
12A
330
1F
100
AcDbEntity
  8
0
  6
Continuous
 62
     7
370
    25
100
AcDbSpline
210
0.0
220
0.0
230
1.0
 70
     8
 71
     3
 72
    19
 73
    15
 74
     0
 42
0.00000001
 43
0.00000001
 40
0.0
 40
0.0
 40
0.0
 40
0.0
 40
0.0048411277930688
 40
0.0271325739232604
 40
0.0564526927627176
 40
0.1074314360847508
 40
0.1719885192540003
 40
0.2502888791715678
 40
0.3424236738931681
 40
0.4484483837151445
 40
0.566134997019594
 40
0.6972784923622405
 40
0.8418959277232407
 40
1.0
 40
1.0
 40
1.0
 40
1.0
 10
442.1302808790022
 20
399.589418773313
 30
0.0
 10
442.2070825715618
 20
399.6893870419811
 30
0.0
 10
442.6375251646672
 20
400.2496689753563
 30
0.0
 10
443.319447134071
 20
401.5638367463041
 30
0.0
 10
444.2902036287325
 20
404.0510113504455
 30
0.0
 10
445.3364100448406
 20
407.6799047613416
 30
0.0
 10
446.4600195018903
 20
412.5988504634907
 30
0.0
 10
447.5879055542565
 20
418.612051673158
 30
0.0
 10
448.7208253172267
 20
425.718627246351
 30
0.0
 10
449.8481648495556
 20
433.8624764841712
 30
0.0
 10
450.9714604655637
 20
443.0305471897727
 30
0.0
 10
452.0892459503395
 20
453.2104241478788
 30
0.0
 10
453.2132123927581
 20
464.4474337233251
 30
0.0
 10
453.9169175870774
 20
472.2953868300133
 30
0.0
 10
454.284445675096
 20
476.3941816427333
 30
0.0
  0
LINE
  5
12B
330
1F
100
AcDbEntity
  8
0
  6
Continuous
 62
     7
370
    25
100
AcDbLine
 10
442.130280879
 20
421.3394187733
 30
0.0
 11
442.130280879
 21
399.5894187733
 31
0.0
  0
SPLINE
  5
12C
330
1F
100
AcDbEntity
  8
0
  6
Continuous
 62
     7
370
    25
100
AcDbSpline
210
0.0
220
0.0
230
1.0
 70
     8
 71
     3
 72
    19
 73
    15
 74
     0
 42
0.00000001
 43
0.00000001
 40
0.0
 40
0.0
 40
0.0
 40
0.0
 40
0.1610076094708928
 40
0.3080205451587558
 40
0.4410523297926821
 40
0.5601212497387602
 40
0.6652528776262736
 40
0.754977050403128
 40
0.8313472952756347
 40
0.8944520700882941
 40
0.9444502909296437
 40
0.9737984443191062
 40
0.9961112045055128
 40
1.0
 40
1.0
 40
1.0
 40
1.0
 10
427.0226650473028
 20
476.3941816427335
 30
0.0
 10
427.3967231788387
 20
472.2241123751951
 30
0.0
 10
428.1123265591717
 20
464.2464334731977
 30
0.0
 10
429.256585162668
 20
452.8344525738317
 30
0.0
 10
430.3944180631395
 20
442.5183820326029
 30
0.0
 10
431.532054376598
 20
433.2986498872405
 30
0.0
 10
432.6618673422829
 20
425.2135084840129
 30
0.0
 10
433.7829892250774
 20
418.2498233141432
 30
0.0
 10
434.8911669519282
 20
412.3922499952348
 30
0.0
 10
435.9949917344202
 20
407.5899719519164
 30
0.0
 10
437.026917709293
 20
404.0263301816828
 30
0.0
 10
437.9870360458688
 20
401.5633148654499
 30
0.0
 10
438.6592134639723
 20
400.2728985711659
 30
0.0
 10
439.06940140204
 20
399.7286124094624
 30
0.0
 10
439.1302808790022
 20
399.6478302757936
 30
0.0
  0
LINE
  5
12D
330
1F
100
AcDbEntity
  8
0
  6
Continuous
 62
     7
370
    25
100
AcDbLine
 10
427.0226650473
 20
476.3941816427
 30
0.0
 11
431.255280879
 21
476.3941816427
 31
0.0
  0
LINE
  5
12E
330
1F
100
AcDbEntity
  8
0
  6
Continuous
 62
     7
370
    25
100
AcDbLine
 10
19.0853257115
 20
488.6334445848
 30
0.0
 11
19.0853257115
 21
496.1334445848
 31
0.0
  0
LINE
  5
12F
330
1F
100
AcDbEntity
  8
0
  6
Continuous
 62
     7
370
    25
100
AcDbLine
 10
37.8353257115
 20
488.6334445848
 30
0.0
 11
37.8353257115
 21
496.1334445848
 31
0.0
  0
LINE
  5
130
330
1F
100
AcDbEntity
  8
0
  6
Continuous
 62
     7
370
    25
100
AcDbLine
 10
37.8353257115
 20
488.6334445848
 30
0.0
 11
42.1144905076
 21
488.6334445848
 31
0.0
  0
SPLINE
  5
131
330
1F
100
AcDbEntity
  8
0
  6
Continuous
 62
     7
370
    25
100
AcDbSpline
210
0.0
220
0.0
230
1.0
 70
     8
 71
     3
 72
    19
 73
    15
 74
     0
 42
0.00000001
 43
0.00000001
 40
0.0
 40
0.0
 40
0.0
 40
0.0
 40
0.004841127793069
 40
0.0271325739232604
 40
0.0564526927627176
 40
0.1074314360847507
 40
0.1719885192540005
 40
0.250288879171568
 40
0.3424236738931684
 40
0.4484483837151448
 40
0.5661349970195942
 40
0.6972784923622405
 40
0.8418959277232407
 40
1.0
 40
1.0
 40
1.0
 40
1.0
 10
29.96032571148194
 20
411.8286817154013
 30
0.0
 10
30.03712740404155
 20
411.9286499840694
 30
0.0
 10
30.46756999714703
 20
412.4889319174446
 30
0.0
 10
31.14949196655062
 20
413.8030996883925
 30
0.0
 10
32.12024846121214
 20
416.2902742925338
 30
0.0
 10
33.16645487732023
 20
419.9191677034299
 30
0.0
 10
34.29006433437002
 20
424.8381134055791
 30
0.0
 10
35.41795038673617
 20
430.8513146152463
 30
0.0
 10
36.55087014970643
 20
437.9578901884394
 30
0.0
 10
37.67820968203531
 20
446.1017394262595
 30
0.0
 10
38.80150529804335
 20
455.2698101318611
 30
0.0
 10
39.91929078281927
 20
465.4496870899671
 30
0.0
 10
41.04325722523786
 20
476.6866966654134
 30
0.0
 10
41.74696241955719
 20
484.5346497721016
 30
0.0
 10
42.11449050757574
 20
488.6334445848216
 30
0.0
  0
LINE
  5
132
330
1F
100
AcDbEntity
  8
0
  6
Continuous
 62
     7
370
    25
100
AcDbLine
 10
29.9603257115
 20
433.5786817154
 30
0.0
 11
29.9603257115
 21
411.8286817154
 31
0.0
  0
LINE
  5
133
330
1F
100
AcDbEntity
  8
0
  6
Continuous
 62
     7
370
    25
100
AcDbLine
 10
26.9603257115
 20
433.5786817154
 30
0.0
 11
29.9603257115
 21
433.5786817154
 31
0.0
  0
SPLINE
  5
134
330
1F
100
AcDbEntity
  8
0
  6
Continuous
 62
     7
370
    25
100
AcDbSpline
210
0.0
220
0.0
230
1.0
 70
     8
 71
     3
 72
    19
 73
    15
 74
     0
 42
0.00000001
 43
0.00000001
 40
0.0
 40
0.0
 40
0.0
 40
0.0
 40
0.1610076094708928
 40
0.3080205451587558
 40
0.4410523297926818
 40
0.56012124973876
 40
0.6652528776262738
 40
0.7549770504031282
 40
0.8313472952756346
 40
0.8944520700882943
 40
0.9444502909296438
 40
0.9737984443191063
 40
0.9961112045055129
 40
1.0
 40
1.0
 40
1.0
 40
1.0
 10
14.85270987978257
 20
488.6334445848218
 30
0.0
 10
15.22676801131836
 20
484.4633753172834
 30
0.0
 10
15.94237139165133
 20
476.485696415286
 30
0.0
 10
17.08662999514779
 20
465.07371551592
 30
0.0
 10
18.22446289561924
 20
454.7576449746912
 30
0.0
 10
19.36209920907764
 20
445.5379128293289
 30
0.0
 10
20.49191217476257
 20
437.4527714261012
 30
0.0
 10
21.61303405755721
 20
430.4890862562315
 30
0.0
 10
22.72121178440786
 20
424.6315129373232
 30
0.0
 10
23.82503656689983
 20
419.8292348940047
 30
0.0
 10
24.85696254177275
 20
416.2655931237711
 30
0.0
 10
25.81708087834838
 20
413.8025778075383
 30
0.0
 10
26.48925829645224
 20
412.5121615132542
 30
0.0
 10
26.89944623451968
 20
411.9678753515508
 30
0.0
 10
26.96032571148194
 20
411.887093217882
 30
0.0
  0
LINE
  5
135
330
1F
100
AcDbEntity
  8
0
  6
Continuous
 62
     7
370
    25
100
AcDbLine
 10
14.8527098798
 20
488.6334445848
 30
0.0
 11
19.0853257115
 21
488.6334445848
 31
0.0
  0
LINE
  5
136
330
1F
100
AcDbEntity
  8
0
  6
Continuous
 62
     7
370
    25
100
AcDbLine
 10
37.8353257115
 20
496.1334445848
 30
0.0
 11
19.0853257115
 21
496.1334445848
 31
0.0
  0
LINE
  5
137
330
1F
100
AcDbEntity
  8
0
  6
Continuous
 62
     7
370
    25
100
AcDbLine
 10
26.9603257115
 20
433.5786817154
 30
0.0
 11
26.9603257115
 21
411.8870932179
 31
0.0
  0
LINE
  5
138
330
1F
100
AcDbEntity
  8
0
  6
Continuous
 62
     7
370
    25
100
AcDbLine
 10
464.2686323324
 20
350.9170975122
 30
0.0
 11
464.2686323324
 21
358.4170975122
 31
0.0
  0
LINE
  5
139
330
1F
100
AcDbEntity
  8
0
  6
Continuous
 62
     7
370
    25
100
AcDbLine
 10
483.0186323324
 20
358.4170975122
 30
0.0
 11
464.2686323324
 21
358.4170975122
 31
0.0
  0
LINE
  5
13A
330
1F
100
AcDbEntity
  8
0
  6
Continuous
 62
     7
370
    25
100
AcDbLine
 10
483.0186323324
 20
350.9170975122
 30
0.0
 11
483.0186323324
 21
358.4170975122
 31
0.0
  0
LINE
  5
13B
330
1F
100
AcDbEntity
  8
0
  6
Continuous
 62
     7
370
    25
100
AcDbLine
 10
483.0186323324
 20
350.9170975122
 30
0.0
 11
487.2977971285
 21
350.9170975122
 31
0.0
  0
SPLINE
  5
13C
330
1F
100
AcDbEntity
  8
0
  6
Continuous
 62
     7
370
    25
100
AcDbSpline
210
0.0
220
0.0
230
1.0
 70
     8
 71
     3
 72
    19
 73
    15
 74
     0
 42
0.00000001
 43
0.00000001
 40
0.0
 40
0.0
 40
0.0
 40
0.0
 40
0.0048411277930689
 40
0.0271325739232605
 40
0.0564526927627175
 40
0.1074314360847508
 40
0.1719885192540004
 40
0.2502888791715679
 40
0.3424236738931684
 40
0.4484483837151447
 40
0.5661349970195942
 40
0.6972784923622405
 40
0.8418959277232407
 40
1.0
 40
1.0
 40
1.0
 40
1.0
 10
475.1436323323852
 20
274.1123346428186
 30
0.0
 10
475.2204340249447
 20
274.2123029114866
 30
0.0
 10
475.6508766180503
 20
274.7725848448619
 30
0.0
 10
476.3327985874539
 20
276.0867526158096
 30
0.0
 10
477.3035550821155
 20
278.573927219951
 30
0.0
 10
478.3497614982235
 20
282.2028206308472
 30
0.0
 10
479.4733709552732
 20
287.1217663329963
 30
0.0
 10
480.6012570076393
 20
293.1349675426636
 30
0.0
 10
481.7341767706097
 20
300.2415431158566
 30
0.0
 10
482.8615163029385
 20
308.3853923536768
 30
0.0
 10
483.9848119189466
 20
317.5534630592783
 30
0.0
 10
485.1025974037226
 20
327.7333400173844
 30
0.0
 10
486.2265638461411
 20
338.9703495928307
 30
0.0
 10
486.9302690404604
 20
346.8183026995189
 30
0.0
 10
487.297797128479
 20
350.9170975122389
 30
0.0
  0
LINE
  5
13D
330
1F
100
AcDbEntity
  8
0
  6
Continuous
 62
     7
370
    25
100
AcDbLine
 10
475.1436323324
 20
295.8623346428
 30
0.0
 11
475.1436323324
 21
274.1123346428
 31
0.0
  0
LINE
  5
13E
330
1F
100
AcDbEntity
  8
0
  6
Continuous
 62
     7
370
    25
100
AcDbLine
 10
472.1436323324
 20
295.8623346428
 30
0.0
 11
475.1436323324
 21
295.8623346428
 31
0.0
  0
LINE
  5
13F
330
1F
100
AcDbEntity
  8
0
  6
Continuous
 62
     7
370
    25
100
AcDbLine
 10
472.1436323324
 20
295.8623346428
 30
0.0
 11
472.1436323324
 21
274.1707461453
 31
0.0
  0
SPLINE
  5
140
330
1F
100
AcDbEntity
  8
0
  6
Continuous
 62
     7
370
    25
100
AcDbSpline
210
0.0
220
0.0
230
1.0
 70
     8
 71
     3
 72
    19
 73
    15
 74
     0
 42
0.00000001
 43
0.00000001
 40
0.0
 40
0.0
 40
0.0
 40
0.0
 40
0.161007609470893
 40
0.3080205451587558
 40
0.4410523297926821
 40
0.5601212497387604
 40
0.6652528776262739
 40
0.7549770504031283
 40
0.8313472952756348
 40
0.8944520700882943
 40
0.9444502909296439
 40
0.9737984443191064
 40
0.996111204505513
 40
1.0
 40
1.0
 40
1.0
 40
1.0
 10
460.0360165006858
 20
350.9170975122391
 30
0.0
 10
460.4100746322216
 20
346.7470282447006
 30
0.0
 10
461.1256780125545
 20
338.7693493427033
 30
0.0
 10
462.269936616051
 20
327.3573684433373
 30
0.0
 10
463.4077695165224
 20
317.0412979021085
 30
0.0
 10
464.545405829981
 20
307.8215657567462
 30
0.0
 10
465.6752187956658
 20
299.7364243535184
 30
0.0
 10
466.7963406784604
 20
292.7727391836489
 30
0.0
 10
467.9045184053111
 20
286.9151658647404
 30
0.0
 10
469.0083431878032
 20
282.112887821422
 30
0.0
 10
470.0402691626761
 20
278.5492460511883
 30
0.0
 10
471.0003874992516
 20
276.0862307349555
 30
0.0
 10
471.6725649173555
 20
274.7958144406715
 30
0.0
 10
472.0827528554229
 20
274.251528278968
 30
0.0
 10
472.1436323323852
 20
274.1707461452992
 30
0.0
  0
LINE
  5
141
330
1F
100
AcDbEntity
  8
0
  6
Continuous
 62
     7
370
    25
100
AcDbLine
 10
460.0360165007
 20
350.9170975122
 30
0.0
 11
464.2686323324
 21
350.9170975122
 31
0.0
  0
LINE
  5
142
330
1F
100
AcDbEntity
  8
0
  6
Continuous
 62
     7
370
    25
100
AcDbLine
 10
330.17389517
 20
231.5736955434
 30
0.0
 11
330.1864582458
 21
239.0736850214
 31
0.0
  0
LINE
  5
143
330
1F
100
AcDbEntity
  8
0
  6
Continuous
 62
     7
370
    25
100
AcDbLine
 10
330.1864582458
 20
239.0736850214
 30
0.0
 11
367.6864056355
 21
239.0108696424
 31
0.0
  0
LINE
  5
144
330
1F
100
AcDbEntity
  8
0
  6
Continuous
 62
     7
370
    25
100
AcDbLine
 10
367.6738425597
 20
231.5108801644
 30
0.0
 11
367.6864056355
 21
239.0108696424
 31
0.0
  0
LINE
  5
145
330
1F
100
AcDbEntity
  8
0
  6
Continuous
 62
     7
370
    25
100
AcDbLine
 10
367.6738425597
 20
231.5108801644
 30
0.0
 11
445.1515573098
 21
231.3810988619
 31
0.0
  0
LINE
  5
146
330
1F
100
AcDbEntity
  8
0
  6
Continuous
 62
     7
370
    25
100
AcDbLine
 10
445.1515573098
 20
231.3810988619
 30
0.0
 11
445.1641203856
 21
238.8810883399
 31
0.0
  0
LINE
  5
147
330
1F
100
AcDbEntity
  8
0
  6
Continuous
 62
     7
370
    25
100
AcDbLine
 10
482.6640677753
 20
238.8182729609
 30
0.0
 11
445.1641203856
 21
238.8810883399
 31
0.0
  0
LINE
  5
148
330
1F
100
AcDbEntity
  8
0
  6
Continuous
 62
     7
370
    25
100
AcDbLine
 10
482.6515046995
 20
231.3182834829
 30
0.0
 11
482.6640677753
 21
238.8182729609
 31
0.0
  0
LINE
  5
149
330
1F
100
AcDbEntity
  8
0
  6
Continuous
 62
     7
370
    25
100
AcDbLine
 10
482.6515046995
 20
231.3182834829
 30
0.0
 11
495.7086570036
 21
231.2964117197
 31
0.0
  0
SPLINE
  5
14A
330
1F
100
AcDbEntity
  8
0
  6
Continuous
 62
     7
370
    25
100
AcDbSpline
210
0.0
220
0.0
230
1.0
 70
     8
 71
     3
 72
    19
 73
    15
 74
     0
 42
0.00000001
 43
0.00000001
 40
0.0
 40
0.0
 40
0.0
 40
0.0
 40
0.0525631252265397
 40
0.1070788257838217
 40
0.1649928694355004
 40
0.2275157186035679
 40
0.2956125045428789
 40
0.3700318112690416
 40
0.4543030885761572
 40
0.5464442549235249
 40
0.6468269032576571
 40
0.7557383022530557
 40
0.8734032705721607
 40
1.0
 40
1.0
 40
1.0
 40
1.0
 10
407.7471213490024
 20
132.5965155775084
 30
0.0
 10
410.1601260840563
 20
132.8094580394744
 30
0.0
 10
415.0757720340789
 20
133.2432531893739
 30
0.0
 10
422.3548846824413
 20
135.5608973348799
 30
0.0
 10
429.6102168368741
 20
139.0732746706866
 30
0.0
 10
436.840019437419
 20
143.8982285716176
 30
0.0
 10
444.0529099173069
 20
149.9892205643484
 30
0.0
 10
451.3504045966258
 20
157.4526599316238
 30
0.0
 10
458.7249335196588
 20
166.3299254757957
 30
0.0
 10
466.1696106772171
 20
176.6582119147789
 30
0.0
 10
473.6165419202279
 20
188.3509204583935
 30
0.0
 10
481.0581809015224
 20
201.4137591381487
 30
0.0
 10
488.5327631116184
 20
215.8311781254226
 30
0.0
 10
493.2590842532514
 20
226.0171788658247
 30
0.0
 10
495.7086570036064
 20
231.2964117196813
 30
0.0
  0
LINE
  5
14B
330
1F
100
AcDbEntity
  8
0
  6
Continuous
 62
     7
370
    25
100
AcDbLine
 10
407.7869044224
 20
156.3464822576
 30
0.0
 11
407.747121349
 21
132.5965155775
 31
0.0
  0
LINE
  5
14C
330
1F
100
AcDbEntity
  8
0
  6
Continuous
 62
     7
370
    25
100
AcDbLine
 10
404.7869086312
 20
156.351507488
 30
0.0
 11
407.7869044224
 21
156.3464822576
 31
0.0
  0
SPLINE
  5
14D
330
1F
100
AcDbEntity
  8
0
  6
Continuous
 62
     7
370
    25
100
AcDbSpline
210
0.0
220
0.0
230
1.0
 70
     8
 71
     3
 72
    19
 73
    15
 74
     0
 42
0.00000001
 43
0.00000001
 40
0.0
 40
0.0
 40
0.0
 40
0.0
 40
0.1265967294271518
 40
0.2442616977463065
 40
0.3531730967417539
 40
0.4535557450759333
 40
0.5456969114233466
 40
0.6299681887305051
 40
0.7043874954567758
 40
0.772484281396179
 40
0.8350071305643249
 40
0.8929211742160696
 40
0.9474368747734084
 40
1.0
 40
1.0
 40
1.0
 40
1.0
 10
317.1167428658829
 20
231.595567306679
 30
0.0
 10
319.5486156539419
 20
226.3081576453371
 30
0.0
 10
324.240785653927
 20
216.1063801870752
 30
0.0
 10
331.6670254188183
 20
201.6640011440105
 30
0.0
 10
339.0648601854488
 20
188.5763051715687
 30
0.0
 10
346.472577323992
 20
176.8587139165556
 30
0.0
 10
353.8826114068725
 20
166.5055446608802
 30
0.0
 10
361.2273587848628
 20
157.6036231642535
 30
0.0
 10
368.4998088795753
 20
150.1157779866451
 30
0.0
 10
375.6922531526275
 20
144.0006559183911
 30
0.0
 10
382.9058508674832
 20
139.1515081791102
 30
0.0
 10
390.1493753198274
 20
135.6148441112803
 30
0.0
 10
397.4206826666702
 20
133.2728268609978
 30
0.0
 10
402.3348477529298
 20
132.8225659998428
 30
0.0
 10
404.7471255578286
 20
132.6015408078288
 30
0.0
  0
LINE
  5
14E
330
1F
100
AcDbEntity
  8
0
  6
Continuous
 62
     7
370
    25
100
AcDbLine
 10
317.1167428659
 20
231.5955673067
 30
0.0
 11
330.17389517
 21
231.5736955434
 31
0.0
  0
LINE
  5
14F
330
1F
100
AcDbEntity
  8
0
  6
Continuous
 62
     7
370
    25
100
AcDbLine
 10
404.7869086312
 20
156.351507488
 30
0.0
 11
404.7471255578
 21
132.6015408078
 31
0.0
  0
LINE
  5
150
330
1F
100
AcDbEntity
  8
0
  6
Continuous
 62
     7
370
    25
100
AcDbLine
 10
23.668853769
 20
229.3321249962
 30
0.0
 11
23.668853769
 21
236.8321249962
 31
0.0
  0
LINE
  5
151
330
1F
100
AcDbEntity
  8
0
  6
Continuous
 62
     7
370
    25
100
AcDbLine
 10
23.668853769
 20
236.8321249962
 30
0.0
 11
61.168853769
 21
236.8321249962
 31
0.0
  0
LINE
  5
152
330
1F
100
AcDbEntity
  8
0
  6
Continuous
 62
     7
370
    25
100
AcDbLine
 10
61.168853769
 20
229.3321249962
 30
0.0
 11
61.168853769
 21
236.8321249962
 31
0.0
  0
LINE
  5
153
330
1F
100
AcDbEntity
  8
0
  6
Continuous
 62
     7
370
    25
100
AcDbLine
 10
138.6466772161
 20
229.3321249962
 30
0.0
 11
138.6466772161
 21
236.8321249962
 31
0.0
  0
LINE
  5
154
330
1F
100
AcDbEntity
  8
0
  6
Continuous
 62
     7
370
    25
100
AcDbLine
 10
176.1466772161
 20
236.8321249962
 30
0.0
 11
138.6466772161
 21
236.8321249962
 31
0.0
  0
LINE
  5
155
330
1F
100
AcDbEntity
  8
0
  6
Continuous
 62
     7
370
    25
100
AcDbLine
 10
176.1466772161
 20
229.3321249962
 30
0.0
 11
189.2038478386
 21
229.3321249962
 31
0.0
  0
SPLINE
  5
156
330
1F
100
AcDbEntity
  8
0
  6
Continuous
 62
     7
370
    25
100
AcDbSpline
210
0.0
220
0.0
230
1.0
 70
     8
 71
     3
 72
    19
 73
    15
 74
     0
 42
0.00000001
 43
0.00000001
 40
0.0
 40
0.0
 40
0.0
 40
0.0
 40
0.0525631252265399
 40
0.1070788257838219
 40
0.1649928694355004
 40
0.2275157186035681
 40
0.295612504542879
 40
0.3700318112690417
 40
0.4543030885761573
 40
0.546444254923525
 40
0.6468269032576571
 40
0.7557383022530558
 40
0.8734032705721608
 40
1.0
 40
1.0
 40
1.0
 40
1.0
 10
101.4077654925238
 20
130.4850249989447
 30
0.0
 10
103.8204101472996
 20
130.7020091303507
 30
0.0
 10
108.7353225607758
 20
131.1440377560182
 30
0.0
 10
116.0105427650873
 20
133.4738717225324
 30
0.0
 10
123.2599812390146
 20
136.9983973690526
 30
0.0
 10
130.4816915283527
 20
141.8354549752656
 30
0.0
 10
137.6843690097587
 20
147.9385205679998
 30
0.0
 10
144.9693516171809
 20
155.4141733283439
 30
0.0
 10
152.3290000928522
 20
164.3037793203404
 30
0.0
 10
159.7563661332358
 20
174.6445216751285
 30
0.0
 10
167.1837007441332
 20
186.349687996109
 30
0.0
 10
174.6034480275714
 20
199.4249736660722
 30
0.0
 10
182.0538694675826
 20
213.8548929255936
 30
0.0
 10
186.7631216452061
 20
224.0487963263949
 30
0.0
 10
189.2038478386173
 20
229.3321249962126
 30
0.0
  0
LINE
  5
157
330
1F
100
AcDbEntity
  8
0
  6
Continuous
 62
     7
370
    25
100
AcDbLine
 10
98.4077654925
 20
154.2350249989
 30
0.0
 11
101.4077654925
 21
154.2350249989
 31
0.0
  0
LINE
  5
158
330
1F
100
AcDbEntity
  8
0
  6
Continuous
 62
     7
370
    25
100
AcDbLine
 10
101.4077654925
 20
154.2350249989
 30
0.0
 11
101.4077654925
 21
130.4850249989
 31
0.0
  0
LINE
  5
159
330
1F
100
AcDbEntity
  8
0
  6
Continuous
 62
     7
370
    25
100
AcDbLine
 10
61.168853769
 20
229.3321249962
 30
0.0
 11
138.6466772161
 21
229.3321249962
 31
0.0
  0
SPLINE
  5
15A
330
1F
100
AcDbEntity
  8
0
  6
Continuous
 62
     7
370
    25
100
AcDbSpline
210
0.0
220
0.0
230
1.0
 70
     8
 71
     3
 72
    19
 73
    15
 74
     0
 42
0.00000001
 43
0.00000001
 40
0.0
 40
0.0
 40
0.0
 40
0.0
 40
0.1265967294271519
 40
0.2442616977463065
 40
0.3531730967417539
 40
0.4535557450759333
 40
0.5456969114233468
 40
0.6299681887305051
 40
0.7043874954567759
 40
0.7724842813961791
 40
0.8350071305643246
 40
0.8929211742160696
 40
0.9474368747734084
 40
1.0
 40
1.0
 40
1.0
 40
1.0
 10
10.61168314643027
 20
229.3321249962126
 30
0.0
 10
13.05240933982796
 20
224.0487963264235
 30
0.0
 10
17.76166151743874
 20
213.8548929256486
 30
0.0
 10
25.21208295743429
 20
199.4249736661496
 30
0.0
 10
32.63183024087252
 20
186.3496879961787
 30
0.0
 10
40.05916485176989
 20
174.6445216751906
 30
0.0
 10
47.48653089215349
 20
164.3037793203948
 30
0.0
 10
54.84617936782688
 20
155.4141733283882
 30
0.0
 10
62.13116197525323
 20
147.9385205680327
 30
0.0
 10
69.33383945666633
 20
141.835454975287
 30
0.0
 10
76.55554974601122
 20
136.9983973690647
 30
0.0
 10
83.80498821994576
 20
133.4738717225378
 30
0.0
 10
91.08020842426454
 20
131.1440377560192
 30
0.0
 10
95.9951208377455
 20
130.7020091303511
 30
0.0
 10
98.40776549252378
 20
130.4850249989447
 30
0.0
  0
LINE
  5
15B
330
1F
100
AcDbEntity
  8
0
  6
Continuous
 62
     7
370
    25
100
AcDbLine
 10
176.1466772161
 20
229.3321249962
 30
0.0
 11
176.1466772161
 21
236.8321249962
 31
0.0
  0
LINE
  5
15C
330
1F
100
AcDbEntity
  8
0
  6
Continuous
 62
     7
370
    25
100
AcDbLine
 10
10.6116831464
 20
229.3321249962
 30
0.0
 11
23.668853769
 21
229.3321249962
 31
0.0
  0
LINE
  5
15D
330
1F
100
AcDbEntity
  8
0
  6
Continuous
 62
     7
370
    25
100
AcDbLine
 10
98.4077654925
 20
154.2350249989
 30
0.0
 11
98.4077654925
 21
130.4850249989
 31
0.0
  0
LINE
  5
15E
330
1F
100
AcDbEntity
  8
0
  6
Continuous
 62
     7
370
    25
100
AcDbLine
 10
180.1340014013
 20
160.5433745928
 30
0.0
 11
180.1340014013
 21
168.0433745928
 31
0.0
  0
LINE
  5
15F
330
1F
100
AcDbEntity
  8
0
  6
Continuous
 62
     7
370
    25
100
AcDbLine
 10
180.1340014013
 20
168.0433745928
 30
0.0
 11
217.6340014013
 21
168.0433745928
 31
0.0
  0
LINE
  5
160
330
1F
100
AcDbEntity
  8
0
  6
Continuous
 62
     7
370
    25
100
AcDbLine
 10
217.6340014013
 20
160.5433745928
 30
0.0
 11
217.6340014013
 21
168.0433745928
 31
0.0
  0
LINE
  5
161
330
1F
100
AcDbEntity
  8
0
  6
Continuous
 62
     7
370
    25
100
AcDbLine
 10
217.6340014013
 20
160.5433745928
 30
0.0
 11
295.1118248483
 21
160.5433745928
 31
0.0
  0
LINE
  5
162
330
1F
100
AcDbEntity
  8
0
  6
Continuous
 62
     7
370
    25
100
AcDbLine
 10
295.1118248483
 20
160.5433745928
 30
0.0
 11
295.1118248483
 21
168.0433745928
 31
0.0
  0
LINE
  5
163
330
1F
100
AcDbEntity
  8
0
  6
Continuous
 62
     7
370
    25
100
AcDbLine
 10
332.6118248483
 20
168.0433745928
 30
0.0
 11
295.1118248483
 21
168.0433745928
 31
0.0
  0
LINE
  5
164
330
1F
100
AcDbEntity
  8
0
  6
Continuous
 62
     7
370
    25
100
AcDbLine
 10
332.6118248483
 20
160.5433745928
 30
0.0
 11
332.6118248483
 21
168.0433745928
 31
0.0
  0
LINE
  5
165
330
1F
100
AcDbEntity
  8
0
  6
Continuous
 62
     7
370
    25
100
AcDbLine
 10
332.6118248483
 20
160.5433745928
 30
0.0
 11
345.6689954709
 21
160.5433745928
 31
0.0
  0
SPLINE
  5
166
330
1F
100
AcDbEntity
  8
0
  6
Continuous
 62
     7
370
    25
100
AcDbSpline
210
0.0
220
0.0
230
1.0
 70
     8
 71
     3
 72
    19
 73
    15
 74
     0
 42
0.00000001
 43
0.00000001
 40
0.0
 40
0.0
 40
0.0
 40
0.0
 40
0.0525631252265399
 40
0.1070788257838218
 40
0.1649928694355005
 40
0.227515718603568
 40
0.2956125045428789
 40
0.3700318112690417
 40
0.4543030885761571
 40
0.5464442549235249
 40
0.646826903257657
 40
0.7557383022530558
 40
0.8734032705721607
 40
1.0
 40
1.0
 40
1.0
 40
1.0
 10
257.8729131248132
 20
61.69627459554736
 30
0.0
 10
260.2855577795891
 20
61.91325872695336
 30
0.0
 10
265.2004701930651
 20
62.35528735262083
 30
0.0
 10
272.4756903973768
 20
64.68512131913506
 30
0.0
 10
279.7251288713041
 20
68.20964696565524
 30
0.0
 10
286.9468391606421
 20
73.04670457186829
 30
0.0
 10
294.1495166420481
 20
79.14977016460244
 30
0.0
 10
301.4344992494703
 20
86.62542292494652
 30
0.0
 10
308.7941477251416
 20
95.51502891694311
 30
0.0
 10
316.2215137655253
 20
105.8557712717311
 30
0.0
 10
323.6488483764226
 20
117.5609375927116
 30
0.0
 10
331.0685956598608
 20
130.6362232626749
 30
0.0
 10
338.5190170998721
 20
145.0661425221962
 30
0.0
 10
343.2282692774955
 20
155.2600459229976
 30
0.0
 10
345.6689954709067
 20
160.5433745928153
 30
0.0
  0
LINE
  5
167
330
1F
100
AcDbEntity
  8
0
  6
Continuous
 62
     7
370
    25
100
AcDbLine
 10
257.8729131248
 20
85.4462745955
 30
0.0
 11
257.8729131248
 21
61.6962745955
 31
0.0
  0
LINE
  5
168
330
1F
100
AcDbEntity
  8
0
  6
Continuous
 62
     7
370
    25
100
AcDbLine
 10
254.8729131248
 20
85.4462745955
 30
0.0
 11
257.8729131248
 21
85.4462745955
 31
0.0
  0
SPLINE
  5
169
330
1F
100
AcDbEntity
  8
0
  6
Continuous
 62
     7
370
    25
100
AcDbSpline
210
0.0
220
0.0
230
1.0
 70
     8
 71
     3
 72
    19
 73
    15
 74
     0
 42
0.00000001
 43
0.00000001
 40
0.0
 40
0.0
 40
0.0
 40
0.0
 40
0.1265967294271518
 40
0.2442616977463065
 40
0.3531730967417539
 40
0.4535557450759332
 40
0.5456969114233465
 40
0.629968188730505
 40
0.7043874954567758
 40
0.772484281396179
 40
0.8350071305643246
 40
0.8929211742160696
 40
0.9474368747734084
 40
1.0
 40
1.0
 40
1.0
 40
1.0
 10
167.0768307787197
 20
160.5433745928152
 30
0.0
 10
169.5175569721174
 20
155.2600459230261
 30
0.0
 10
174.2268091497281
 20
145.0661425222512
 30
0.0
 10
181.6772305897238
 20
130.6362232627522
 30
0.0
 10
189.096977873162
 20
117.5609375927814
 30
0.0
 10
196.5243124840593
 20
105.8557712717932
 30
0.0
 10
203.951678524443
 20
95.51502891699748
 30
0.0
 10
211.3113270001163
 20
86.62542292499087
 30
0.0
 10
218.5963096075427
 20
79.14977016463531
 30
0.0
 10
225.7989870889557
 20
73.04670457188958
 30
0.0
 10
233.0206973783007
 20
68.2096469656673
 30
0.0
 10
240.2701358522352
 20
64.68512131914045
 30
0.0
 10
247.5453560565539
 20
62.35528735262194
 30
0.0
 10
252.4602684700349
 20
61.91325872695369
 30
0.0
 10
254.8729131248132
 20
61.69627459554736
 30
0.0
  0
LINE
  5
16A
330
1F
100
AcDbEntity
  8
0
  6
Continuous
 62
     7
370
    25
100
AcDbLine
 10
167.0768307787
 20
160.5433745928
 30
0.0
 11
180.1340014013
 21
160.5433745928
 31
0.0
  0
LINE
  5
16B
330
1F
100
AcDbEntity
  8
0
  6
Continuous
 62
     7
370
    25
100
AcDbLine
 10
254.8729131248
 20
85.4462745955
 30
0.0
 11
254.8729131248
 21
61.6962745955
 31
0.0
  0
ENDSEC
  0
SECTION
  2
OBJECTS
  0
DICTIONARY
  5
C
330
0
100
AcDbDictionary
281
     1
  3
ACAD_GROUP
350
D
  3
ACAD_LAYOUT
350
1A
  3
ACAD_MLINESTYLE
350
17
  3
ACAD_PLOTSETTINGS
350
19
  3
ACAD_PLOTSTYLENAME
350
E
  3
ACAD_SCALELIST
350
47
  3
DWGPROPS
350
16C
  0
DICTIONARY
  5
D
102
{ACAD_REACTORS
330
C
102
}
330
C
100
AcDbDictionary
281
     1
  0
DICTIONARY
  5
1A
102
{ACAD_REACTORS
330
C
102
}
330
C
100
AcDbDictionary
281
     1
  3
Layout1
350
1E
  3
Layout2
350
26
  3
Model
350
22
  0
DICTIONARY
  5
17
102
{ACAD_REACTORS
330
C
102
}
330
C
100
AcDbDictionary
281
     1
  3
Standard
350
18
  0
DICTIONARY
  5
19
102
{ACAD_REACTORS
330
C
102
}
330
C
100
AcDbDictionary
281
     1
  0
ACDBDICTIONARYWDFLT
  5
E
102
{ACAD_REACTORS
330
C
102
}
330
C
100
AcDbDictionary
281
     1
  3
Normal
350
F
100
AcDbDictionaryWithDefault
340
F
  0
DICTIONARY
  5
47
102
{ACAD_REACTORS
330
C
102
}
330
C
100
AcDbDictionary
281
     1
  3
A0
350
48
  3
A1
350
49
  3
A2
350
4A
  3
A3
350
4B
  3
A4
350
4C
  3
A5
350
4D
  3
A6
350
4E
  3
A7
350
4F
  3
A8
350
50
  3
A9
350
51
  3
B0
350
52
  3
B1
350
53
  3
B2
350
54
  3
B3
350
55
  3
B4
350
56
  3
B5
350
57
  3
B6
350
58
  0
XRECORD
  5
16C
102
{ACAD_REACTORS
330
C
102
}
330
C
100
AcDbXrecord
280
     1
  1
DWGPROPS COOKIE
  2

  3

  4

  6

  7

  8
26872
  9

300
=
301
=
302
=
303
=
304
=
305
=
306
=
307
=
308
=
309
=
 40
0.0
 41
2460848.499169606
 42
2460848.499169838
  1

 90
        0
  0
LAYOUT
  5
1E
102
{ACAD_REACTORS
330
1A
102
}
330
1A
100
AcDbPlotSettings
  1

  2
none_device
  4

  6

 40
0.0
 41
0.0
 42
0.0
 43
0.0
 44
0.0
 45
0.0
 46
0.0
 47
0.0
 48
0.0
 49
0.0
140
0.0
141
0.0
142
1.0
143
1.0
 70
   688
 72
     1
 73
     0
 74
     5
  7

 75
    16
147
1.0
148
0.0
149
0.0
100
AcDbLayout
  1
Layout1
 70
     1
 71
     1
 10
0.0
 20
0.0
 11
420.0
 21
297.0
 12
0.0
 22
0.0
 32
0.0
 14
1.0000000000E+20
 24
1.0000000000E+20
 34
1.0000000000E+20
 15
-1.0000000000E+20
 25
-1.0000000000E+20
 35
-1.0000000000E+20
146
0.0
 13
0.0
 23
0.0
 33
0.0
 16
1.0
 26
0.0
 36
0.0
 17
0.0
 27
1.0
 37
0.0
 76
     0
330
1B
  0
LAYOUT
  5
26
102
{ACAD_REACTORS
330
1A
102
}
330
1A
100
AcDbPlotSettings
  1

  2
none_device
  4

  6

 40
0.0
 41
0.0
 42
0.0
 43
0.0
 44
0.0
 45
0.0
 46
0.0
 47
0.0
 48
0.0
 49
0.0
140
0.0
141
0.0
142
1.0
143
1.0
 70
   688
 72
     1
 73
     0
 74
     5
  7

 75
    16
147
1.0
148
0.0
149
0.0
100
AcDbLayout
  1
Layout2
 70
     1
 71
     2
 10
0.0
 20
0.0
 11
0.0
 21
0.0
 12
0.0
 22
0.0
 32
0.0
 14
0.0
 24
0.0
 34
0.0
 15
0.0
 25
0.0
 35
0.0
146
0.0
 13
0.0
 23
0.0
 33
0.0
 16
1.0
 26
0.0
 36
0.0
 17
0.0
 27
1.0
 37
0.0
 76
     0
330
23
  0
LAYOUT
  5
22
102
{ACAD_REACTORS
330
1A
102
}
330
1A
100
AcDbPlotSettings
  1

  2
none_device
  4
Letter_(8.50_x_11.00_Inches)
  6

 40
6.35
 41
6.35
 42
6.35000508
 43
6.35000508
 44
215.9
 45
279.4
 46
0.0
 47
0.0
 48
0.0
 49
0.0
140
0.0
141
0.0
142
1.0
143
1.0
 70
  1712
 72
     1
 73
     0
 74
     0
  7

 75
     0
147
1.0
148
0.0
149
0.0
100
AcDbLayout
  1
Model
 70
     1
 71
     0
 10
0.0
 20
0.0
 11
500.0
 21
600.0
 12
0.0
 22
0.0
 32
0.0
 14
0.0
 24
0.0
 34
0.0
 15
500.0
 25
600.0
 35
0.0
146
0.0
 13
0.0
 23
0.0
 33
0.0
 16
1.0
 26
0.0
 36
0.0
 17
0.0
 27
1.0
 37
0.0
 76
     0
330
1F
331
29
  0
MLINESTYLE
  5
18
102
{ACAD_REACTORS
330
17
102
}
330
17
100
AcDbMlineStyle
  2
Standard
 70
     0
  3

 62
   256
 51
90.0
 52
90.0
 71
     2
 49
0.5
 62
   256
  6
BYLAYER
 49
-0.5
 62
   256
  6
BYLAYER
  0
ACDBPLACEHOLDER
  5
F
102
{ACAD_REACTORS
330
E
102
}
330
E
  0
SCALE
  5
48
102
{ACAD_REACTORS
330
47
102
}
330
47
100
AcDbScale
 70
     0
300
1:1
140
1.0
141
1.0
290
     1
  0
SCALE
  5
49
102
{ACAD_REACTORS
330
47
102
}
330
47
100
AcDbScale
 70
     0
300
1:2
140
1.0
141
2.0
290
     0
  0
SCALE
  5
4A
102
{ACAD_REACTORS
330
47
102
}
330
47
100
AcDbScale
 70
     0
300
1:4
140
1.0
141
4.0
290
     0
  0
SCALE
  5
4B
102
{ACAD_REACTORS
330
47
102
}
330
47
100
AcDbScale
 70
     0
300
1:5
140
1.0
141
5.0
290
     0
  0
SCALE
  5
4C
102
{ACAD_REACTORS
330
47
102
}
330
47
100
AcDbScale
 70
     0
300
1:8
140
1.0
141
8.0
290
     0
  0
SCALE
  5
4D
102
{ACAD_REACTORS
330
47
102
}
330
47
100
AcDbScale
 70
     0
300
1:10
140
1.0
141
10.0
290
     0
  0
SCALE
  5
4E
102
{ACAD_REACTORS
330
47
102
}
330
47
100
AcDbScale
 70
     0
300
1:16
140
1.0
141
16.0
290
     0
  0
SCALE
  5
4F
102
{ACAD_REACTORS
330
47
102
}
330
47
100
AcDbScale
 70
     0
300
1:20
140
1.0
141
20.0
290
     0
  0
SCALE
  5
50
102
{ACAD_REACTORS
330
47
102
}
330
47
100
AcDbScale
 70
     0
300
1:30
140
1.0
141
30.0
290
     0
  0
SCALE
  5
51
102
{ACAD_REACTORS
330
47
102
}
330
47
100
AcDbScale
 70
     0
300
1:40
140
1.0
141
40.0
290
     0
  0
SCALE
  5
52
102
{ACAD_REACTORS
330
47
102
}
330
47
100
AcDbScale
 70
     0
300
1:50
140
1.0
141
50.0
290
     0
  0
SCALE
  5
53
102
{ACAD_REACTORS
330
47
102
}
330
47
100
AcDbScale
 70
     0
300
1:100
140
1.0
141
100.0
290
     0
  0
SCALE
  5
54
102
{ACAD_REACTORS
330
47
102
}
330
47
100
AcDbScale
 70
     0
300
2:1
140
2.0
141
1.0
290
     0
  0
SCALE
  5
55
102
{ACAD_REACTORS
330
47
102
}
330
47
100
AcDbScale
 70
     0
300
4:1
140
4.0
141
1.0
290
     0
  0
SCALE
  5
56
102
{ACAD_REACTORS
330
47
102
}
330
47
100
AcDbScale
 70
     0
300
8:1
140
8.0
141
1.0
290
     0
  0
SCALE
  5
57
102
{ACAD_REACTORS
330
47
102
}
330
47
100
AcDbScale
 70
     0
300
10:1
140
10.0
141
1.0
290
     0
  0
SCALE
  5
58
102
{ACAD_REACTORS
330
47
102
}
330
47
100
AcDbScale
 70
     0
300
100:1
140
100.0
141
1.0
290
     0
  0
ENDSEC
  0
EOF
